<svg width="83" height="49" viewBox="0 0 83 49" fill="none" xmlns="http://www.w3.org/2000/svg">
<path d="M19.7722 45.6216V45.3038H21.0625V45.6216L20.6604 45.6918V46.9504H22.4023V45.6918L22.0001 45.6216V45.3038H23.2905V45.6216L22.8883 45.6918V48.5619L23.2905 48.6321V48.9473H22.0001V48.6321L22.4023 48.5619V47.3384H20.6604V48.5619L21.0625 48.6321V48.9473H19.7722V48.6321L20.1743 48.5619V45.6918L19.7722 45.6216Z" fill="#999591"/>
<path d="M25.4419 48.9473C25.4271 48.8742 25.4156 48.808 25.4074 48.7499C25.3992 48.6914 25.3934 48.6329 25.3901 48.5747C25.2964 48.6965 25.1788 48.7982 25.0373 48.8797C24.8975 48.9598 24.7478 49 24.5883 49C24.3103 49 24.0989 48.9316 23.9542 48.7949C23.8094 48.6563 23.7371 48.4621 23.7371 48.2116C23.7371 47.9549 23.839 47.7571 24.043 47.6185C24.2486 47.4784 24.5299 47.4082 24.8868 47.4082H25.3877V47.093C25.3877 46.9347 25.3383 46.8093 25.2397 46.7178C25.141 46.6242 25.0036 46.5774 24.8276 46.5774C24.7059 46.5774 24.5981 46.5935 24.5044 46.625C24.4123 46.6568 24.3374 46.7003 24.2799 46.7551L24.2281 47.0404H23.853V46.5149C23.9747 46.4165 24.122 46.3383 24.2947 46.2798C24.4674 46.2198 24.6549 46.1898 24.8572 46.1898C25.1599 46.1898 25.4049 46.2681 25.5925 46.4249C25.78 46.5818 25.8737 46.806 25.8737 47.0981V48.4018C25.8737 48.4369 25.8737 48.4712 25.8737 48.5045C25.8754 48.5378 25.8779 48.5711 25.8811 48.6047L26.0785 48.6321V48.9473H25.4419ZM24.6598 48.5872C24.821 48.5872 24.9682 48.548 25.1015 48.4694C25.2347 48.3912 25.3301 48.2968 25.3877 48.1867V47.7414H24.8695C24.6705 47.7414 24.5126 47.7878 24.3958 47.8814C24.2807 47.9747 24.2231 48.0884 24.2231 48.2218C24.2231 48.3403 24.2593 48.431 24.3317 48.4946C24.404 48.5561 24.5134 48.5872 24.6598 48.5872Z" fill="#999591"/>
<path d="M26.4832 48.6321L26.8853 48.5619V46.6275L26.4832 46.5577V46.2395H27.3714V48.5619L27.7736 48.6321V48.9473H26.4832V48.6321ZM27.3714 45.5466H26.8853V45.0434H27.3714V45.5466Z" fill="#999591"/>
<path d="M28.1461 46.5577V46.2395H28.9825L29.0294 46.6326C29.1051 46.4941 29.198 46.3858 29.3082 46.3072C29.4201 46.2289 29.5476 46.1898 29.6906 46.1898C29.7285 46.1898 29.7671 46.1931 29.8066 46.1997C29.8477 46.2048 29.879 46.2107 29.9004 46.2172L29.8362 46.6751L29.5599 46.6601C29.4316 46.6601 29.3239 46.6911 29.2367 46.7526C29.1495 46.8129 29.082 46.8978 29.0344 47.0078V48.5619L29.4365 48.6321V48.9473H28.1461V48.6321L28.5483 48.5619V46.6275L28.1461 46.5577Z" fill="#999591"/>
<path d="M31.3881 48.6146C31.5493 48.6146 31.6908 48.5645 31.8125 48.4643C31.9358 48.3626 31.9975 48.2383 31.9975 48.0917H32.4342L32.4392 48.1067C32.4474 48.3403 32.3446 48.548 32.1308 48.7298C31.9186 48.91 31.671 49 31.3881 49C30.9999 49 30.703 48.8716 30.4974 48.6146C30.2934 48.3575 30.1915 48.035 30.1915 47.6463V47.541C30.1915 47.1555 30.2943 46.8345 30.4999 46.5774C30.7055 46.3189 31.0016 46.1898 31.3881 46.1898C31.6019 46.1898 31.7935 46.2256 31.963 46.2973C32.134 46.369 32.2755 46.4674 32.3873 46.5924L32.4096 47.1932H32.0222L31.9161 46.7676C31.8585 46.7109 31.7845 46.6652 31.6941 46.6301C31.6036 46.595 31.5016 46.5774 31.3881 46.5774C31.1331 46.5774 30.9506 46.671 30.8404 46.8579C30.7318 47.0429 30.6775 47.2707 30.6775 47.541V47.6463C30.6775 47.9231 30.7318 48.1542 30.8404 48.3392C30.9489 48.5228 31.1315 48.6146 31.3881 48.6146Z" fill="#999591"/>
<path d="M34.8226 48.5469C34.7387 48.6921 34.6301 48.804 34.4969 48.8823C34.3653 48.9609 34.2131 49 34.0404 49C33.7509 49 33.5248 48.9057 33.3619 48.7173C33.1991 48.5287 33.1177 48.235 33.1177 47.8364V46.6275L32.8117 46.5577V46.2395H33.6037V47.8412C33.6037 48.1301 33.6457 48.3286 33.7296 48.4369C33.8134 48.5455 33.9442 48.5996 34.1219 48.5996C34.2946 48.5996 34.4369 48.5645 34.5487 48.4946C34.6622 48.4226 34.7477 48.3217 34.8053 48.1915V46.6275L34.4475 46.5577V46.2395H35.2913V48.5619L35.5973 48.6321V48.9473H34.8546L34.8226 48.5469Z" fill="#999591"/>
<path d="M36.8308 45.5865V46.2395H37.3367V46.6052H36.8308V48.2493C36.8308 48.3762 36.8563 48.4654 36.9073 48.5169C36.9601 48.5689 37.0291 48.5945 37.1146 48.5945C37.1574 48.5945 37.2052 48.5912 37.2577 48.5846C37.3119 48.5762 37.3572 48.5678 37.3935 48.5594L37.4599 48.8972C37.414 48.9276 37.3468 48.9517 37.2577 48.97C37.1689 48.9901 37.0802 49 36.9914 49C36.7938 49 36.6368 48.94 36.52 48.8197C36.4032 48.698 36.345 48.5078 36.345 48.2493V46.6052H35.923V46.2395H36.345V45.5865H36.8308Z" fill="#999591"/>
<path d="M39.8756 47.0905H39.5105L39.4315 46.7654C39.3722 46.7083 39.2974 46.6634 39.2069 46.6301C39.1181 46.595 39.0168 46.5774 38.9036 46.5774C38.7308 46.5774 38.6025 46.6158 38.5185 46.6926C38.4348 46.7694 38.3927 46.8619 38.3927 46.9705C38.3927 47.0773 38.4297 47.1614 38.5037 47.2232C38.5778 47.285 38.7283 47.3399 38.9554 47.3885C39.2924 47.4616 39.5432 47.5618 39.7078 47.6887C39.8723 47.8138 39.9546 47.9823 39.9546 48.1941C39.9546 48.4343 39.8583 48.6288 39.6657 48.7773C39.4749 48.9258 39.2249 49 38.9159 49C38.7136 49 38.5318 48.9766 38.3704 48.9298C38.2095 48.8815 38.0654 48.8124 37.9389 48.7221L37.9364 48.1041H38.3014L38.3927 48.4669C38.4488 48.5188 38.5242 48.5561 38.6198 48.5795C38.7168 48.6029 38.8156 48.6146 38.9159 48.6146C39.0887 48.6146 39.2234 48.5795 39.3204 48.5096C39.4192 48.4376 39.4685 48.3443 39.4685 48.2292C39.4685 48.1209 39.4275 48.0313 39.3452 47.9615C39.2644 47.8913 39.1106 47.8306 38.8839 47.7787C38.5598 47.707 38.3155 47.6093 38.1509 47.4861C37.9863 47.3625 37.9041 47.1958 37.9041 46.9855C37.9041 46.7654 37.9964 46.5774 38.1807 46.4224C38.3665 46.2673 38.6076 46.1898 38.9036 46.1898C39.1059 46.1898 39.2874 46.2165 39.4487 46.2699C39.61 46.3233 39.7441 46.3975 39.8508 46.4926L39.8756 47.0905Z" fill="#999591"/>
<path d="M41.6297 47.9666C41.6297 47.7629 41.6875 47.5852 41.8025 47.4335C41.9193 47.2799 42.0928 47.1263 42.3232 46.9731C42.1949 46.8078 42.0993 46.6608 42.0368 46.5324C41.9743 46.4023 41.943 46.2688 41.943 46.132C41.943 45.8501 42.0228 45.6333 42.1823 45.4815C42.3436 45.3279 42.565 45.2511 42.8463 45.2511C43.1061 45.2511 43.3174 45.3272 43.4801 45.479C43.6433 45.6307 43.7245 45.8135 43.7245 46.0271C43.7245 46.1905 43.681 46.3324 43.5937 46.4524C43.5082 46.5708 43.3806 46.6926 43.2114 46.8177L42.9423 47.0181L43.7812 48.0416C43.8488 47.933 43.9012 47.813 43.9393 47.681C43.9771 47.5494 43.9961 47.4101 43.9961 47.2631H44.4301C44.4301 47.4817 44.3982 47.6843 44.3339 47.8712C44.2699 48.058 44.1768 48.2259 44.055 48.3743L44.5117 48.9349L44.5067 48.9473H43.9415L43.732 48.6921C43.6005 48.7923 43.4546 48.8691 43.2951 48.9225C43.1356 48.974 42.9703 49 42.7992 49C42.4425 49 42.1579 48.9042 41.9455 48.7122C41.735 48.5202 41.6297 48.2716 41.6297 47.9666ZM42.7992 48.6146C42.9178 48.6146 43.0346 48.5945 43.1496 48.5546C43.2649 48.5129 43.3734 48.4537 43.4755 48.3769L42.5847 47.2883L42.4859 47.3607C42.3365 47.4744 42.2369 47.5827 42.1873 47.6861C42.1396 47.7896 42.1158 47.8829 42.1158 47.9666C42.1158 48.1549 42.1744 48.31 42.2912 48.4317C42.408 48.5539 42.5772 48.6146 42.7992 48.6146ZM42.4292 46.1269C42.4292 46.2154 42.4514 46.3079 42.496 46.4048C42.5402 46.4999 42.607 46.6041 42.6958 46.7178L43.036 46.4798C43.1298 46.4165 43.1934 46.3481 43.2261 46.2746C43.2606 46.1997 43.2778 46.117 43.2778 46.0271C43.2778 45.9251 43.2376 45.8351 43.1571 45.7569C43.0781 45.6782 42.9746 45.6391 42.8463 45.6391C42.713 45.6391 42.6103 45.6867 42.5377 45.7817C42.4655 45.8753 42.4292 45.9902 42.4292 46.1269Z" fill="#999591"/>
<path d="M48.6642 46.38H48.2963L48.205 45.8592C48.131 45.796 48.0325 45.7433 47.9089 45.7016C47.7857 45.66 47.6427 45.6391 47.4796 45.6391C47.2216 45.6391 47.0232 45.6951 46.8853 45.8066C46.7469 45.917 46.6779 46.0611 46.6779 46.2395C46.6779 46.3982 46.7476 46.531 46.8874 46.6378C47.029 46.7427 47.2568 46.8352 47.5712 46.9153C47.9492 47.0104 48.2363 47.1508 48.4321 47.3358C48.6293 47.5209 48.7282 47.7505 48.7282 48.024C48.7282 48.3177 48.6096 48.5539 48.3728 48.7323C48.1378 48.9108 47.8292 49 47.4476 49C47.1713 49 46.9255 48.9543 46.7099 48.8625C46.4961 48.7707 46.3219 48.6504 46.1868 48.502V47.8236H46.5522L46.6456 48.3469C46.7394 48.4252 46.8515 48.4895 46.9812 48.5396C47.1113 48.5897 47.2668 48.6146 47.4476 48.6146C47.6926 48.6146 47.8859 48.5619 48.0275 48.457C48.1705 48.3517 48.242 48.2091 48.242 48.0291C48.242 47.862 48.1806 47.7227 48.057 47.6112C47.9337 47.4975 47.7156 47.4024 47.4034 47.326C47.0232 47.2342 46.7264 47.0989 46.5127 46.9204C46.2989 46.742 46.1918 46.5175 46.1918 46.2472C46.1918 45.962 46.3111 45.725 46.5497 45.5364C46.7879 45.3462 47.098 45.2511 47.4796 45.2511C47.7314 45.2511 47.9599 45.2954 48.1655 45.3839C48.3728 45.4705 48.5392 45.5766 48.6642 45.7016V46.38Z" fill="#999591"/>
<path d="M49.1205 48.6321L49.5226 48.5619V45.4314L49.1205 45.3612V45.0434H50.0088V46.6001C50.1007 46.4699 50.2136 46.369 50.3469 46.2973C50.4798 46.2256 50.6278 46.1898 50.791 46.1898C51.077 46.1898 51.299 46.2765 51.4571 46.4498C51.6149 46.6235 51.6939 46.8904 51.6939 47.2506V48.5619L52.096 48.6321V48.9473H50.8057V48.6321L51.2078 48.5619V47.2459C51.2078 47.0221 51.16 46.8572 51.0648 46.7504C50.971 46.6436 50.8305 46.5902 50.6429 46.5902C50.5096 46.5902 50.3878 46.6224 50.2775 46.6875C50.169 46.7511 50.0795 46.8378 50.0088 46.9479V48.5619L50.4108 48.6321V48.9473H49.1205V48.6321Z" fill="#999591"/>
<path d="M54.1908 48.9473C54.176 48.8742 54.1645 48.808 54.1563 48.7499C54.148 48.6914 54.1422 48.6329 54.139 48.5747C54.0452 48.6965 53.9277 48.7982 53.7862 48.8797C53.6464 48.9598 53.4966 49 53.337 49C53.0593 49 52.8477 48.9316 52.7029 48.7949C52.5584 48.6563 52.4858 48.4621 52.4858 48.2116C52.4858 47.9549 52.5879 47.7571 52.792 47.6185C52.9975 47.4784 53.2788 47.4082 53.6356 47.4082H54.1365V47.093C54.1365 46.9347 54.0873 46.8093 53.9885 46.7178C53.8897 46.6242 53.7524 46.5774 53.5763 46.5774C53.4549 46.5774 53.3471 46.5935 53.2533 46.625C53.161 46.6568 53.0862 46.7003 53.0288 46.7551L52.977 47.0404H52.6019V46.5149C52.7237 46.4165 52.8707 46.3383 53.0435 46.2798C53.2163 46.2198 53.4039 46.1898 53.6062 46.1898C53.9087 46.1898 54.1537 46.2681 54.3413 46.4249C54.5289 46.5818 54.6226 46.806 54.6226 47.0981V48.4018C54.6226 48.4369 54.6226 48.4712 54.6226 48.5045C54.6241 48.5378 54.6266 48.5711 54.6298 48.6047L54.8274 48.6321V48.9473H54.1908ZM53.4085 48.5872C53.5699 48.5872 53.7172 48.548 53.8501 48.4694C53.9834 48.3912 54.079 48.2968 54.1365 48.1867V47.7414H53.6184C53.4193 47.7414 53.2616 47.7878 53.1448 47.8814C53.0295 47.9747 52.972 48.0884 52.972 48.2218C52.972 48.3403 53.0083 48.431 53.0805 48.4946C53.1527 48.5561 53.2623 48.5872 53.4085 48.5872Z" fill="#999591"/>
<path d="M56.108 46.5577L55.7871 46.6074L56.3372 48.1491L56.3818 48.3444H56.3965L56.4432 48.1491L56.9764 46.6074L56.6531 46.5577V46.2395H57.6843V46.5577L57.4647 46.595L56.5693 48.9473H56.2018L55.2959 46.595L55.0764 46.5577V46.2395H56.108V46.5577Z" fill="#999591"/>
<path d="M59.1995 49C58.8276 49 58.5315 48.8749 58.3113 48.6245C58.0924 48.3729 57.9828 48.0467 57.9828 47.6463V47.5359C57.9828 47.1508 58.0957 46.8305 58.321 46.5749C58.548 46.3182 58.8161 46.1898 59.1254 46.1898C59.484 46.1898 59.7553 46.2999 59.9396 46.52C60.1254 46.7401 60.2185 47.0338 60.2185 47.4009V47.7088H58.4862L58.4791 47.7212C58.4837 47.9816 58.5488 48.1959 58.6738 48.3645C58.7988 48.5312 58.9742 48.6146 59.1995 48.6146C59.3637 48.6146 59.5077 48.5912 59.631 48.5444C59.756 48.4961 59.8638 48.4303 59.9544 48.3469L60.1444 48.6672C60.0489 48.7605 59.9224 48.8398 59.7643 48.9049C59.608 48.9682 59.4197 49 59.1995 49ZM59.1254 46.5774C58.9623 46.5774 58.8236 46.6476 58.7083 46.7877C58.5933 46.9263 58.5225 47.1007 58.4963 47.311L58.501 47.3234H59.7323V47.2583C59.7323 47.0649 59.6813 46.9029 59.5793 46.7727C59.4772 46.6425 59.3259 46.5774 59.1254 46.5774Z" fill="#999591"/>
<path d="M62.7422 47.0905H62.3772L62.2981 46.7654C62.2392 46.7083 62.1641 46.6634 62.0735 46.6301C61.9848 46.595 61.8838 46.5774 61.7703 46.5774C61.5975 46.5774 61.4692 46.6158 61.3855 46.6926C61.3014 46.7694 61.2594 46.8619 61.2594 46.9705C61.2594 47.0773 61.2964 47.1614 61.3704 47.2232C61.4444 47.285 61.5949 47.3399 61.822 47.3885C62.1594 47.4616 62.4102 47.5618 62.5744 47.6887C62.739 47.8138 62.8213 47.9823 62.8213 48.1941C62.8213 48.4343 62.725 48.6288 62.5327 48.7773C62.3419 48.9258 62.0919 49 61.7825 49C61.5802 49 61.3984 48.9766 61.2374 48.9298C61.0761 48.8815 60.932 48.8124 60.8055 48.7221L60.803 48.1041H61.1681L61.2594 48.4669C61.3154 48.5188 61.3912 48.5561 61.4864 48.5795C61.5835 48.6029 61.6823 48.6146 61.7825 48.6146C61.9553 48.6146 62.0901 48.5795 62.1871 48.5096C62.2859 48.4376 62.3351 48.3443 62.3351 48.2292C62.3351 48.1209 62.2942 48.0313 62.2119 47.9615C62.1314 47.8913 61.9776 47.8306 61.7505 47.7787C61.4264 47.707 61.1821 47.6093 61.0179 47.4861C60.8533 47.3625 60.7711 47.1958 60.7711 46.9855C60.7711 46.7654 60.863 46.5774 61.0474 46.4224C61.2331 46.2673 61.4742 46.1898 61.7703 46.1898C61.9726 46.1898 62.1544 46.2165 62.3154 46.2699C62.4767 46.3233 62.6107 46.3975 62.7178 46.4926L62.7422 47.0905Z" fill="#999591"/>
<path d="M29.8732 3.32837L30.1397 3.29083L31.3955 0H31.8125L33.0462 3.29083L33.3102 3.32837V3.64369H32.2788V3.32837L32.5503 3.28082L32.3134 2.61014H30.8749L30.6307 3.28082L30.9021 3.32837V3.64369H29.8732V3.32837ZM31.0255 2.19723H32.1654L31.6078 0.633142H31.5929L31.0255 2.19723Z" fill="#999591"/>
<path d="M34.2995 1.25377L33.9936 1.30882L34.3415 2.65769L34.3982 2.98552H34.413L34.4821 2.65769L35.0151 0.935946H35.4049L35.9405 2.65769L36.0166 3.02306H36.0317L36.1032 2.65769L36.4313 1.30882L36.1205 1.25377V0.935946H37.137V1.25377L36.9048 1.2888L36.2315 3.64369H35.8391L35.321 1.99452L35.21 1.53906L35.1952 1.54156L35.0916 1.99452L34.5833 3.64369H34.191L33.5174 1.2888L33.283 1.25377V0.935946H34.2995V1.25377Z" fill="#999591"/>
<path d="M38.7506 3.69625C38.3787 3.69625 38.0827 3.57112 37.8624 3.32086C37.6436 3.06894 37.534 2.74278 37.534 2.34237V2.23226C37.534 1.84687 37.6468 1.52655 37.8721 1.27129C38.0992 1.01436 38.3672 0.885899 38.6766 0.885899C39.0352 0.885899 39.3065 0.99601 39.4908 1.21623C39.6765 1.43645 39.7696 1.73008 39.7696 2.09712V2.40494H38.0374L38.0302 2.41745C38.0349 2.67771 38.0999 2.8921 38.2249 3.0606C38.35 3.22744 38.5253 3.31085 38.7506 3.31085C38.9152 3.31085 39.0589 3.2875 39.1821 3.24078C39.3072 3.1924 39.415 3.1265 39.5055 3.04308L39.6956 3.36341C39.6 3.45683 39.4735 3.53608 39.3154 3.60115C39.1591 3.66454 38.9709 3.69625 38.7506 3.69625ZM38.6766 1.27379C38.5138 1.27379 38.3748 1.34386 38.2594 1.484C38.1445 1.62248 38.0737 1.79682 38.0474 2.00703L38.0525 2.01955H39.2835V1.95448C39.2835 1.76095 39.2324 1.59912 39.1304 1.46899C39.0284 1.33886 38.8771 1.27379 38.6766 1.27379Z" fill="#999591"/>
<path d="M42.2934 1.78681H41.9283L41.8493 1.46148C41.7903 1.40476 41.7152 1.35971 41.6251 1.32634C41.5359 1.29131 41.435 1.27379 41.3214 1.27379C41.1486 1.27379 41.0203 1.31216 40.9366 1.38891C40.8525 1.46565 40.8109 1.55824 40.8109 1.66669C40.8109 1.77346 40.8479 1.85771 40.9219 1.91944C40.9959 1.98117 41.1461 2.03623 41.3732 2.08461C41.7106 2.15802 41.9614 2.25812 42.1259 2.38491C42.2901 2.51004 42.3724 2.67855 42.3724 2.89043C42.3724 3.13067 42.2761 3.32503 42.0839 3.47352C41.8931 3.622 41.643 3.69625 41.3337 3.69625C41.1314 3.69625 40.9496 3.67288 40.7886 3.62617C40.6273 3.57779 40.4835 3.50855 40.3567 3.41846L40.3542 2.80034H40.7192L40.8109 3.1632C40.8666 3.21492 40.9424 3.25246 41.0376 3.27582C41.1346 3.29917 41.2334 3.31085 41.3337 3.31085C41.5065 3.31085 41.6412 3.27582 41.7382 3.20575C41.837 3.13401 41.8863 3.04058 41.8863 2.92547C41.8863 2.81702 41.8453 2.72776 41.763 2.65769C41.6825 2.58762 41.5288 2.52673 41.3017 2.47501C40.9776 2.40327 40.7333 2.30567 40.569 2.18221C40.4045 2.05875 40.3222 1.89192 40.3222 1.6817C40.3222 1.46148 40.4142 1.27379 40.5985 1.11863C40.7843 0.963476 41.0254 0.885899 41.3214 0.885899C41.5237 0.885899 41.7055 0.912593 41.8669 0.965977C42.0278 1.01937 42.1619 1.09361 42.2689 1.1887L42.2934 1.78681Z" fill="#999591"/>
<path d="M42.8291 2.2648C42.8291 1.86439 42.9358 1.53489 43.1496 1.27629C43.3634 1.01603 43.6537 0.885899 44.0206 0.885899C44.3892 0.885899 44.6803 1.0152 44.894 1.27379C45.1096 1.53238 45.2174 1.86272 45.2174 2.2648V2.31985C45.2174 2.72359 45.1103 3.05393 44.8966 3.31085C44.6828 3.56778 44.3924 3.69625 44.0256 3.69625C43.6555 3.69625 43.3634 3.56778 43.1496 3.31085C42.9358 3.05226 42.8291 2.72192 42.8291 2.31985V2.2648ZM43.3149 2.31985C43.3149 2.60681 43.3742 2.84371 43.4927 3.03057C43.6127 3.21742 43.7902 3.31085 44.0256 3.31085C44.2559 3.31085 44.4309 3.21742 44.5513 3.03057C44.6713 2.84371 44.7313 2.60681 44.7313 2.31985V2.2648C44.7313 1.98117 44.6713 1.7451 44.5513 1.55658C44.4309 1.36805 44.2541 1.27379 44.0206 1.27379C43.787 1.27379 43.611 1.36805 43.4927 1.55658C43.3742 1.7451 43.3149 1.98117 43.3149 2.2648V2.31985Z" fill="#999591"/>
<path d="M45.5677 3.32837L45.9698 3.2583V1.32384L45.5677 1.25377V0.935948H46.4064L46.4387 1.28881C46.5242 1.16034 46.6342 1.06107 46.7693 0.991004C46.904 0.920934 47.0603 0.885899 47.2382 0.885899C47.4157 0.885899 47.5677 0.927607 47.6945 1.01102C47.8228 1.09444 47.9191 1.21957 47.983 1.3864C48.0671 1.23292 48.1781 1.11113 48.3161 1.02104C48.4544 0.930942 48.6154 0.885899 48.7997 0.885899C49.0728 0.885899 49.2884 0.980995 49.4461 1.17119C49.6042 1.35971 49.6833 1.64417 49.6833 2.02455V3.2583L50.0853 3.32837V3.64369H48.7925V3.32837L49.1946 3.2583V2.01955C49.1946 1.75261 49.1493 1.56408 49.0588 1.45397C48.9682 1.34219 48.8342 1.2863 48.6567 1.2863C48.4871 1.2863 48.3506 1.3472 48.2471 1.46899C48.1451 1.58911 48.0858 1.74093 48.0696 1.92445V3.2583L48.4717 3.32837V3.64369H47.1814V3.32837L47.5835 3.2583V2.01955C47.5835 1.76596 47.5364 1.58077 47.4426 1.46398C47.3506 1.34553 47.2166 1.2863 47.0405 1.2863C46.8925 1.2863 46.7707 1.31717 46.6755 1.3789C46.5799 1.44063 46.507 1.52738 46.456 1.63916V3.2583L46.858 3.32837V3.64369H45.5677V3.32837Z" fill="#999591"/>
<path d="M51.6347 3.69625C51.2631 3.69625 50.9671 3.57112 50.7464 3.32086C50.5276 3.06894 50.4184 2.74278 50.4184 2.34237V2.23226C50.4184 1.84687 50.5309 1.52655 50.7565 1.27129C50.9832 1.01436 51.2516 0.885899 51.5606 0.885899C51.9192 0.885899 52.1905 0.99601 52.3748 1.21623C52.5606 1.43645 52.6537 1.73008 52.6537 2.09712V2.40494H50.9218L50.9142 2.41745C50.9193 2.67771 50.9843 2.8921 51.1093 3.0606C51.234 3.22744 51.4094 3.31085 51.6347 3.31085C51.7992 3.31085 51.9429 3.2875 52.0665 3.24078C52.1916 3.1924 52.2994 3.1265 52.3896 3.04308L52.5796 3.36341C52.4844 3.45683 52.3576 3.53608 52.1998 3.60115C52.0435 3.66454 51.8553 3.69625 51.6347 3.69625ZM51.5606 1.27379C51.3979 1.27379 51.2588 1.34386 51.1438 1.484C51.0285 1.62248 50.9577 1.79682 50.9315 2.00703L50.9365 2.01955H52.1675V1.95448C52.1675 1.76095 52.1165 1.59912 52.0148 1.46899C51.9128 1.33886 51.7615 1.27379 51.5606 1.27379Z" fill="#999591"/>
<path d="M82.6526 38.7879H0V39.5201H82.6526V38.7879Z" fill="#FF9000"/>
<path d="M82.6526 9.50106H0V10.2332H82.6526V9.50106Z" fill="#FF9000"/>
<path d="M19.1437 23.6964V28.8421C19.1437 29.2794 19.0561 29.6962 18.8809 30.0926C18.7192 30.4753 18.4969 30.8101 18.2139 31.0971C17.931 31.3841 17.5941 31.6096 17.2033 31.7736C16.826 31.9513 16.4218 32.0402 15.9906 32.0402C15.5594 32.0402 15.1552 31.9582 14.7779 31.7942C14.4006 31.6302 14.0705 31.4115 13.7875 31.1381C13.5045 30.8511 13.2755 30.5231 13.1003 30.1541C12.9386 29.7714 12.851 29.3614 12.8376 28.924V25.1314C12.7971 24.7077 12.6085 24.4002 12.2716 24.2089C12.4602 24.1132 12.6489 24.0654 12.8376 24.0654V19.2272C12.851 18.7899 12.9386 18.3798 13.1003 17.9972C13.2755 17.6145 13.5045 17.2865 13.7875 17.0131C14.0705 16.7261 14.4006 16.5006 14.7779 16.3366C15.1552 16.1726 15.5594 16.0906 15.9906 16.0906C16.4218 16.0906 16.826 16.1794 17.2033 16.3571C17.5941 16.5211 17.931 16.7466 18.2139 17.0336C18.4969 17.3206 18.7192 17.6623 18.8809 18.0587C19.0561 18.4413 19.1437 18.8582 19.1437 19.3092C19.1437 19.5415 19.1639 19.7124 19.2043 19.8217C19.2582 19.931 19.3121 20.0199 19.366 20.0882C19.4199 20.1566 19.4671 20.2181 19.5075 20.2727C19.5614 20.3274 19.5884 20.4162 19.5884 20.5392H18.5373C18.3217 20.5119 18.2139 20.3957 18.2139 20.1907C18.2139 20.3957 18.1061 20.5119 17.8905 20.5392H16.8193C16.8193 20.4162 16.8395 20.3274 16.8799 20.2727C16.9338 20.2181 16.9877 20.1566 17.0416 20.0882C17.0955 20.0199 17.1427 19.931 17.1831 19.8217C17.237 19.7124 17.264 19.5347 17.264 19.2887V19.2682C17.264 19.0905 17.2572 18.8787 17.2438 18.6327C17.2303 18.373 17.1831 18.127 17.1023 17.8947C17.0214 17.6623 16.8934 17.4641 16.7182 17.3001C16.5431 17.1361 16.3005 17.0541 15.9906 17.0541C15.6672 17.0541 15.418 17.1429 15.2428 17.3206C15.0811 17.4846 14.9598 17.6828 14.879 17.9151C14.7981 18.1475 14.7509 18.3935 14.7375 18.6532C14.724 18.9128 14.7173 19.1315 14.7173 19.3092V24.0654C14.9059 24.0654 15.0945 24.1132 15.2832 24.2089C14.9463 24.4002 14.7577 24.7077 14.7173 25.1314V28.8421C14.7173 29.0197 14.724 29.2384 14.7375 29.4981C14.7509 29.7441 14.7981 29.9901 14.879 30.2361C14.9598 30.4685 15.0811 30.6666 15.2428 30.8306C15.418 30.9946 15.6672 31.0766 15.9906 31.0766C16.314 31.0766 16.5566 30.9946 16.7182 30.8306C16.8934 30.6666 17.0214 30.4685 17.1023 30.2361C17.1831 29.9901 17.2303 29.7441 17.2438 29.4981C17.2572 29.2384 17.264 29.0197 17.264 28.8421V24.6394C17.1157 24.6531 16.9877 24.7146 16.8799 24.8239C16.7856 24.9332 16.7384 25.0631 16.7384 25.2134V25.2339C16.725 25.4389 16.6711 25.6166 16.5768 25.7669C16.4959 25.9036 16.3746 26.0266 16.213 26.1359C16.0513 26.2316 15.8155 26.2795 15.5055 26.2795V23.6964H19.1437ZM13.929 23.1018C13.929 23.0198 13.9223 22.9378 13.9088 22.8558C13.9088 22.7738 13.9088 22.6987 13.9088 22.6303V22.1588C13.8953 21.8581 13.8886 21.5711 13.8886 21.2978C13.8886 21.0244 13.8818 20.7647 13.8684 20.5187C13.8549 20.3957 13.8481 20.2864 13.8481 20.1907C13.8481 20.0814 13.8414 19.972 13.8279 19.8627C13.8279 19.767 13.8212 19.6782 13.8077 19.5962C13.8077 19.5005 13.8077 19.4185 13.8077 19.3502C13.8077 19.2819 13.801 19.2204 13.7875 19.1657C13.7875 19.111 13.7875 19.0632 13.7875 19.0222V18.9197C13.774 18.9197 13.7673 18.9265 13.7673 18.9402V19.0222C13.7673 19.0632 13.7605 19.111 13.7471 19.1657C13.7471 19.2204 13.7471 19.2819 13.7471 19.3502C13.7471 19.4185 13.7403 19.5005 13.7269 19.5962C13.7269 19.6782 13.7269 19.767 13.7269 19.8627C13.7134 19.972 13.7066 20.0814 13.7066 20.1907C13.7066 20.2864 13.6999 20.3957 13.6864 20.5187C13.673 20.7647 13.6662 21.0244 13.6662 21.2978C13.6662 21.5711 13.6595 21.8581 13.646 22.1588V22.6303C13.646 22.6987 13.6393 22.7738 13.6258 22.8558C13.6258 22.9378 13.6258 23.0198 13.6258 23.1018V25.0084C13.6258 25.0494 13.6258 25.0904 13.6258 25.1314C13.6393 25.1724 13.646 25.2066 13.646 25.2339V25.9309C13.646 26.0813 13.646 26.2316 13.646 26.382C13.6595 26.5186 13.6662 26.6553 13.6662 26.792C13.6662 26.9423 13.6662 27.0858 13.6662 27.2225C13.6797 27.3455 13.6864 27.4616 13.6864 27.571C13.6999 27.694 13.7066 27.8102 13.7066 27.9195C13.7066 28.0288 13.7134 28.1313 13.7269 28.227C13.7269 28.3364 13.7269 28.432 13.7269 28.5141C13.7403 28.596 13.7471 28.6712 13.7471 28.7395C13.7471 28.8079 13.7471 28.8694 13.7471 28.924C13.7605 28.9787 13.7673 29.0265 13.7673 29.0676V29.1701C13.7673 29.1837 13.774 29.1905 13.7875 29.1905V29.0676C13.7875 29.0265 13.7875 28.9787 13.7875 28.924C13.801 28.8694 13.8077 28.8079 13.8077 28.7395C13.8077 28.6712 13.8077 28.596 13.8077 28.5141C13.8212 28.432 13.8279 28.3364 13.8279 28.227C13.8414 28.1313 13.8481 28.0288 13.8481 27.9195C13.8481 27.8102 13.8549 27.694 13.8684 27.571C13.8684 27.4616 13.8684 27.3455 13.8684 27.2225C13.8818 27.0858 13.8886 26.9423 13.8886 26.792C13.8886 26.6553 13.8886 26.5186 13.8886 26.382C13.902 26.2316 13.9088 26.0813 13.9088 25.9309V25.4799C13.9088 25.3706 13.9155 25.2886 13.929 25.2339V23.1018ZM18.3352 26.0744C18.3217 25.9378 18.315 25.8148 18.315 25.7054C18.315 25.5824 18.3083 25.4663 18.2948 25.3569C18.2813 25.1519 18.2611 24.9811 18.2341 24.8444C18.2341 24.8171 18.2274 24.7897 18.2139 24.7624C18.2139 24.7351 18.2139 24.7146 18.2139 24.7009V24.6394L18.1937 24.6599V24.7009C18.1937 24.7146 18.187 24.7351 18.1735 24.7624C18.1735 24.7897 18.1735 24.8171 18.1735 24.8444C18.1466 24.9811 18.1263 25.1519 18.1129 25.3569C18.0994 25.4663 18.0927 25.5824 18.0927 25.7054C18.0927 25.8148 18.0859 25.9378 18.0724 26.0744V26.2795C18.0724 26.3205 18.0657 26.3615 18.0522 26.4024C18.0522 26.4298 18.0522 26.4571 18.0522 26.4845V27.3455C18.0522 27.3865 18.059 27.4207 18.0724 27.448V27.7555C18.0724 27.8238 18.0724 27.8854 18.0724 27.94C18.0859 27.9947 18.0927 28.0562 18.0927 28.1245C18.0927 28.1928 18.0927 28.2543 18.0927 28.309C18.1061 28.3637 18.1129 28.4184 18.1129 28.473C18.1263 28.5277 18.1331 28.5824 18.1331 28.637C18.1331 28.6781 18.1398 28.719 18.1533 28.76C18.1533 28.801 18.1533 28.8421 18.1533 28.883C18.1668 28.924 18.1735 28.9582 18.1735 28.9855C18.1735 29.0129 18.1735 29.0402 18.1735 29.0676C18.187 29.0949 18.1937 29.1154 18.1937 29.129V29.1701C18.1937 29.1837 18.2005 29.1905 18.2139 29.1905V29.129C18.2139 29.1154 18.2139 29.0949 18.2139 29.0676C18.2274 29.0402 18.2341 29.0129 18.2341 28.9855C18.2341 28.9582 18.2341 28.924 18.2341 28.883C18.2476 28.8421 18.2544 28.801 18.2544 28.76C18.2678 28.719 18.2746 28.6781 18.2746 28.637C18.2746 28.5824 18.2813 28.5277 18.2948 28.473C18.2948 28.4184 18.2948 28.3637 18.2948 28.309C18.3083 28.2543 18.315 28.1928 18.315 28.1245C18.315 28.0562 18.315 27.9947 18.315 27.94C18.3285 27.8854 18.3352 27.8238 18.3352 27.7555V27.5505C18.3352 27.4958 18.342 27.4616 18.3554 27.448V26.4845C18.3554 26.4571 18.3487 26.4298 18.3352 26.4024C18.3352 26.3615 18.3352 26.3205 18.3352 26.2795V26.0744Z" fill="#F4EDE8"/>
<path d="M26.4863 24.0859C26.7154 24.0859 26.904 24.1337 27.0522 24.2294C26.904 24.3251 26.776 24.4549 26.6682 24.6189C26.5739 24.7829 26.5133 24.9606 26.4863 25.1519V28.2475C26.4728 28.6849 26.3785 29.0949 26.2033 29.4776C26.0416 29.8466 25.8193 30.1746 25.5363 30.4616C25.2534 30.735 24.9232 30.9536 24.5459 31.1176C24.1687 31.2816 23.7644 31.3637 23.3332 31.3637C22.902 31.3637 22.4978 31.2816 22.1205 31.1176C21.7432 30.9536 21.4131 30.735 21.1301 30.4616C20.8472 30.1746 20.6181 29.8466 20.4429 29.4776C20.2812 29.0949 20.1936 28.6849 20.1801 28.2475V25.1519C20.1397 24.7282 19.9511 24.4207 19.6142 24.2294C19.7624 24.1337 19.9511 24.0859 20.1801 24.0859V20.1292C20.1936 19.7055 20.2812 19.3023 20.4429 18.9197C20.6181 18.537 20.8472 18.209 21.1301 17.9356C21.4131 17.6486 21.7432 17.4231 22.1205 17.2591C22.4978 17.0951 22.902 17.0131 23.3332 17.0131C23.7644 17.0131 24.1687 17.0951 24.5459 17.2591C24.9232 17.4231 25.2534 17.6486 25.5363 17.9356C25.8193 18.209 26.0416 18.537 26.2033 18.9197C26.3785 19.3023 26.4728 19.7055 26.4863 20.1292V24.0859ZM21.2716 23.3478C21.2716 23.2795 21.2649 23.218 21.2514 23.1633C21.2514 23.095 21.2514 23.0267 21.2514 22.9583V22.5688C21.2379 22.3092 21.2312 22.0631 21.2312 21.8308C21.2312 21.5984 21.2244 21.3798 21.211 21.1748C21.1975 21.0791 21.1908 20.9834 21.1908 20.8877C21.1908 20.7921 21.184 20.7032 21.1705 20.6212C21.1705 20.5392 21.1638 20.4641 21.1503 20.3957C21.1503 20.3274 21.1503 20.2659 21.1503 20.2112C21.1503 20.1429 21.1436 20.0882 21.1301 20.0472C21.1301 19.9925 21.1301 19.9516 21.1301 19.9242V19.8217C21.1166 19.8217 21.1099 19.8285 21.1099 19.8422V19.9242C21.1099 19.9516 21.1032 19.9925 21.0897 20.0472C21.0897 20.0882 21.0897 20.1429 21.0897 20.2112C21.0897 20.2659 21.0829 20.3274 21.0695 20.3957C21.0695 20.4641 21.0695 20.5392 21.0695 20.6212C21.056 20.7032 21.0493 20.7921 21.0493 20.8877C21.0493 20.9834 21.0425 21.0791 21.029 21.1748C21.0156 21.3798 21.0088 21.5984 21.0088 21.8308C21.0088 22.0631 21.0021 22.3092 20.9886 22.5688V22.9583C20.9886 23.0267 20.9819 23.095 20.9684 23.1633C20.9684 23.218 20.9684 23.2795 20.9684 23.3478V24.9674C20.9684 25.0631 20.9751 25.1314 20.9886 25.1724V25.7669C20.9886 25.89 20.9886 26.0129 20.9886 26.1359C21.0021 26.259 21.0088 26.3751 21.0088 26.4845C21.0088 26.6075 21.0088 26.7236 21.0088 26.833C21.0223 26.9286 21.029 27.0311 21.029 27.1405C21.0425 27.2498 21.0493 27.3523 21.0493 27.448C21.0493 27.53 21.056 27.612 21.0695 27.694C21.0695 27.776 21.0695 27.8512 21.0695 27.9195C21.0829 27.9878 21.0897 28.0562 21.0897 28.1245C21.0897 28.1928 21.0897 28.2543 21.0897 28.309C21.1032 28.35 21.1099 28.3842 21.1099 28.4115V28.473C21.1099 28.4867 21.1166 28.4935 21.1301 28.4935V28.4115C21.1301 28.3842 21.1301 28.35 21.1301 28.309C21.1436 28.2543 21.1503 28.1928 21.1503 28.1245C21.1503 28.0562 21.1503 27.9878 21.1503 27.9195C21.1638 27.8512 21.1705 27.776 21.1705 27.694C21.184 27.612 21.1908 27.53 21.1908 27.448C21.1908 27.3523 21.1975 27.2498 21.211 27.1405C21.211 27.0311 21.211 26.9286 21.211 26.833C21.2244 26.7236 21.2312 26.6075 21.2312 26.4845C21.2312 26.3751 21.2312 26.259 21.2312 26.1359C21.2447 26.0129 21.2514 25.89 21.2514 25.7669V25.1724C21.2649 25.1314 21.2716 25.0631 21.2716 24.9674V23.3478ZM24.6066 20.2112C24.6066 20.0335 24.5998 19.8149 24.5864 19.5552C24.5729 19.2955 24.5257 19.0495 24.4449 18.8172C24.364 18.5848 24.236 18.3867 24.0608 18.2227C23.8992 18.045 23.6566 17.9562 23.3332 17.9562C23.0098 17.9562 22.7605 18.045 22.5854 18.2227C22.4237 18.3867 22.3024 18.5848 22.2215 18.8172C22.1407 19.0495 22.0936 19.2955 22.0801 19.5552C22.0666 19.8149 22.0599 20.0335 22.0599 20.2112V24.0859C22.289 24.0859 22.4776 24.1337 22.6258 24.2294C22.289 24.4207 22.1003 24.7282 22.0599 25.1519V28.1655C22.0599 28.3432 22.0666 28.5619 22.0801 28.8215C22.0936 29.0676 22.1407 29.3136 22.2215 29.5596C22.3024 29.7919 22.4237 29.9901 22.5854 30.1541C22.7605 30.3181 23.0098 30.4001 23.3332 30.4001C23.6566 30.4001 23.8992 30.3181 24.0608 30.1541C24.236 29.9901 24.364 29.7919 24.4449 29.5596C24.5257 29.3136 24.5729 29.0676 24.5864 28.8215C24.5998 28.5619 24.6066 28.3432 24.6066 28.1655V25.1519C24.5796 24.7419 24.391 24.4344 24.0406 24.2294C24.1889 24.1337 24.3775 24.0859 24.6066 24.0859V20.2112ZM25.698 23.3478C25.698 23.2795 25.698 23.218 25.698 23.1633C25.698 23.095 25.6913 23.0267 25.6778 22.9583V22.5688C25.6778 22.3092 25.6711 22.0631 25.6576 21.8308C25.6576 21.5984 25.6509 21.3798 25.6374 21.1748C25.6239 21.0791 25.6172 20.9834 25.6172 20.8877C25.6172 20.7921 25.6104 20.7032 25.597 20.6212C25.597 20.5392 25.5902 20.4641 25.5768 20.3957C25.5768 20.3274 25.5768 20.2659 25.5768 20.2112C25.5768 20.1429 25.57 20.0882 25.5565 20.0472C25.5565 19.9925 25.5565 19.9516 25.5565 19.9242V19.8217C25.5431 19.8217 25.5363 19.8285 25.5363 19.8422V19.9242C25.5363 19.9516 25.5363 19.9925 25.5363 20.0472C25.5363 20.0882 25.5296 20.1429 25.5161 20.2112C25.5161 20.2659 25.5094 20.3274 25.4959 20.3957C25.4959 20.4641 25.4959 20.5392 25.4959 20.6212C25.4824 20.7032 25.4757 20.7921 25.4757 20.8877C25.4757 20.9834 25.469 21.0791 25.4555 21.1748C25.442 21.3798 25.4353 21.5984 25.4353 21.8308C25.4353 22.0631 25.4285 22.3092 25.4151 22.5688V23.3478C25.4016 23.4845 25.3948 23.6212 25.3948 23.7579C25.3948 23.8945 25.3948 24.0312 25.3948 24.1679C25.3948 24.3045 25.3948 24.4412 25.3948 24.5779C25.3948 24.7009 25.4016 24.8307 25.4151 24.9674V25.7669C25.4151 25.89 25.4151 26.0129 25.4151 26.1359C25.4285 26.259 25.4353 26.3751 25.4353 26.4845C25.4353 26.6075 25.4353 26.7236 25.4353 26.833C25.4487 26.9286 25.4555 27.0311 25.4555 27.1405C25.469 27.2498 25.4757 27.3523 25.4757 27.448C25.4757 27.53 25.4824 27.612 25.4959 27.694C25.4959 27.776 25.4959 27.8512 25.4959 27.9195C25.5094 27.9878 25.5161 28.0562 25.5161 28.1245C25.5296 28.1928 25.5363 28.2543 25.5363 28.309C25.5363 28.35 25.5363 28.3842 25.5363 28.4115V28.473C25.5363 28.4867 25.5431 28.4935 25.5565 28.4935V28.4115C25.5565 28.3842 25.5565 28.35 25.5565 28.309C25.57 28.2543 25.5768 28.1928 25.5768 28.1245C25.5768 28.0562 25.5768 27.9878 25.5768 27.9195C25.5902 27.8512 25.597 27.776 25.597 27.694C25.6104 27.612 25.6172 27.53 25.6172 27.448C25.6172 27.3523 25.6239 27.2498 25.6374 27.1405C25.6374 27.0311 25.6374 26.9286 25.6374 26.833C25.6509 26.7236 25.6576 26.6075 25.6576 26.4845C25.6576 26.3751 25.6576 26.259 25.6576 26.1359C25.6711 26.0129 25.6778 25.89 25.6778 25.7669V25.3774C25.6778 25.3501 25.6778 25.3159 25.6778 25.2749C25.6913 25.2339 25.698 25.1997 25.698 25.1724V23.3478Z" fill="#F4EDE8"/>
<path d="M33.9869 21.4413C33.9869 22.0563 33.8387 22.6098 33.5422 23.1018C33.2458 23.5939 32.8483 23.9765 32.3497 24.2499C32.5923 24.4412 32.8146 24.6667 33.0167 24.9264C33.2188 25.1724 33.3873 25.4457 33.522 25.7464C33.6702 26.0471 33.7848 26.3546 33.8656 26.669C33.9465 26.9833 33.9869 27.2908 33.9869 27.5915V28.9036C33.9734 29.3409 33.8858 29.7509 33.7241 30.1336C33.5624 30.5026 33.3401 30.8306 33.0571 31.1176C32.7742 31.391 32.444 31.6096 32.0667 31.7736C31.6894 31.9513 31.2852 32.0402 30.854 32.0402H28.9541C28.8598 32.0402 28.7789 32.006 28.7115 31.9377C28.6576 31.8693 28.6307 31.7873 28.6307 31.6917C28.6307 31.7873 28.597 31.8693 28.5297 31.9377C28.4622 32.006 28.3882 32.0402 28.3073 32.0402H27.2361C27.2361 31.9172 27.2563 31.8283 27.2967 31.7736C27.3506 31.719 27.4045 31.6575 27.4584 31.5892C27.5123 31.5345 27.5595 31.4525 27.5999 31.3431C27.6538 31.2338 27.6807 31.063 27.6807 30.8306V25.1109C27.6403 24.7009 27.4517 24.4002 27.1148 24.2089C27.29 24.0996 27.4786 24.0449 27.6807 24.0449V17.3001C27.6807 17.0678 27.6538 16.897 27.5999 16.7876C27.5595 16.6782 27.5123 16.5963 27.4584 16.5416C27.4045 16.4733 27.3506 16.4117 27.2967 16.3571C27.2563 16.3024 27.2361 16.2136 27.2361 16.0906H28.3073C28.3882 16.0906 28.4622 16.1247 28.5297 16.1931C28.597 16.2477 28.6307 16.3229 28.6307 16.4186C28.6307 16.1999 28.7385 16.0906 28.9541 16.0906H30.854C31.2852 16.0906 31.6894 16.1726 32.0667 16.3366C32.444 16.5006 32.7742 16.7261 33.0571 17.0131C33.3401 17.2865 33.5624 17.6145 33.7241 17.9972C33.8858 18.3798 33.9734 18.783 33.9869 19.2067V21.4413ZM28.7722 22.9583C28.7722 22.8627 28.7654 22.7738 28.752 22.6918C28.752 22.5961 28.752 22.5073 28.752 22.4253V21.8923C28.7385 21.5369 28.7318 21.2021 28.7318 20.8877C28.7318 20.5734 28.725 20.2796 28.7115 20.0062C28.6981 19.8559 28.6913 19.7192 28.6913 19.5962C28.6913 19.4732 28.6846 19.357 28.6711 19.2477C28.6711 19.1383 28.6644 19.0358 28.6509 18.9402C28.6509 18.8308 28.6509 18.742 28.6509 18.6737C28.6509 18.5917 28.6442 18.5165 28.6307 18.4482C28.6307 18.3798 28.6307 18.3252 28.6307 18.2842V18.1612C28.6172 18.1748 28.6105 18.1885 28.6105 18.2021V18.2842C28.6105 18.3252 28.6037 18.3798 28.5903 18.4482C28.5903 18.5165 28.5903 18.5917 28.5903 18.6737C28.5903 18.742 28.5835 18.8308 28.5701 18.9402C28.5701 19.0358 28.5701 19.1383 28.5701 19.2477C28.5566 19.357 28.5498 19.4732 28.5498 19.5962C28.5498 19.7192 28.5431 19.8559 28.5297 20.0062C28.5162 20.2796 28.5094 20.5734 28.5094 20.8877C28.5094 21.2021 28.5027 21.5369 28.4892 21.8923V22.4253C28.4892 22.5073 28.4892 22.5961 28.4892 22.6918C28.4892 22.7738 28.4825 22.8627 28.469 22.9583V25.1519C28.469 25.2066 28.469 25.2544 28.469 25.2954C28.4825 25.3364 28.4892 25.3843 28.4892 25.4389V26.218C28.4892 26.3956 28.4892 26.5733 28.4892 26.751C28.5027 26.915 28.5094 27.0721 28.5094 27.2225C28.5094 27.3728 28.5094 27.5232 28.5094 27.6735C28.5229 27.8238 28.5297 27.9742 28.5297 28.1245C28.5431 28.1928 28.5498 28.2612 28.5498 28.3295C28.5498 28.3842 28.5498 28.4457 28.5498 28.5141C28.5498 28.5824 28.5498 28.6439 28.5498 28.6985C28.5633 28.7532 28.5701 28.8079 28.5701 28.8625C28.5701 28.9719 28.5701 29.0812 28.5701 29.1905C28.5835 29.2862 28.5903 29.3751 28.5903 29.4571C28.5903 29.5391 28.5903 29.6142 28.5903 29.6826C28.6037 29.7373 28.6105 29.7851 28.6105 29.8261V29.9286C28.6105 29.9423 28.6172 29.9559 28.6307 29.9696V29.8261C28.6307 29.7851 28.6307 29.7373 28.6307 29.6826C28.6442 29.6142 28.6509 29.5391 28.6509 29.4571C28.6509 29.3751 28.6509 29.2862 28.6509 29.1905C28.6644 29.0812 28.6711 28.9719 28.6711 28.8625C28.6846 28.8079 28.6913 28.7532 28.6913 28.6985C28.6913 28.6439 28.6913 28.5824 28.6913 28.5141C28.6913 28.4457 28.6913 28.3842 28.6913 28.3295C28.7048 28.2612 28.7115 28.1928 28.7115 28.1245C28.7115 27.9742 28.7115 27.8238 28.7115 27.6735C28.725 27.5232 28.7318 27.3728 28.7318 27.2225C28.7318 27.0721 28.7318 26.915 28.7318 26.751C28.7452 26.5733 28.752 26.3956 28.752 26.218V25.7054C28.752 25.5824 28.7587 25.4936 28.7722 25.4389V22.9583ZM32.9358 28.4935C32.9224 28.5345 32.9156 28.6029 32.9156 28.6985V29.0676C32.9156 29.1359 32.9089 29.1974 32.8954 29.252C32.8954 29.3067 32.8954 29.3614 32.8954 29.4161C32.8954 29.4707 32.8887 29.5186 32.8752 29.5596C32.8752 29.6006 32.8752 29.6416 32.8752 29.6826V29.7441C32.8618 29.7577 32.855 29.7783 32.855 29.8056V29.9081C32.8415 29.9217 32.8348 29.9354 32.8348 29.9491V29.9901C32.8348 30.0038 32.828 30.0174 32.8146 30.0311C32.8146 30.0311 32.8146 30.0379 32.8146 30.0516C32.8146 30.0653 32.8079 30.0789 32.7944 30.0926H32.8146C32.8146 30.0926 32.8213 30.0789 32.8348 30.0516C32.8348 30.0516 32.8415 30.0379 32.855 30.0106C32.8685 29.9969 32.8752 29.9832 32.8752 29.9696C32.8887 29.9559 32.8954 29.9423 32.8954 29.9286C32.9089 29.9149 32.9156 29.9013 32.9156 29.8876C32.9291 29.8739 32.9358 29.8534 32.9358 29.8261C32.9628 29.7988 32.9763 29.7646 32.9763 29.7236C33.0032 29.6689 33.0302 29.5733 33.0571 29.4366C33.0841 29.3545 33.0976 29.2999 33.0976 29.2726C33.111 29.2452 33.1178 29.2179 33.1178 29.1905C33.1178 29.1496 33.1245 29.1154 33.138 29.088C33.138 29.0607 33.138 29.0334 33.138 29.0061C33.1515 28.965 33.1582 28.9309 33.1582 28.9036C33.1717 28.8625 33.1784 28.801 33.1784 28.719C33.1919 28.6507 33.1986 28.5824 33.1986 28.5141C33.1986 28.4457 33.2054 28.3774 33.2188 28.309V27.448C33.2188 27.3797 33.2121 27.3113 33.1986 27.243C33.1986 27.1747 33.1919 27.1063 33.1784 27.038C33.1784 26.956 33.1717 26.8945 33.1582 26.8535C33.1582 26.8261 33.1515 26.7988 33.138 26.7715C33.138 26.7305 33.138 26.6963 33.138 26.669C33.1245 26.6416 33.1178 26.6143 33.1178 26.587C33.1178 26.546 33.111 26.5118 33.0976 26.4845C33.0976 26.4571 33.0908 26.4298 33.0773 26.4024C33.0773 26.3751 33.0773 26.3478 33.0773 26.3205C33.0504 26.2384 33.0369 26.1906 33.0369 26.1769C33.0234 26.1359 33.0032 26.0881 32.9763 26.0334C32.9763 25.9925 32.9628 25.9583 32.9358 25.9309C32.9358 25.89 32.9224 25.8558 32.8954 25.8284C32.8685 25.7738 32.8483 25.7328 32.8348 25.7054C32.8213 25.6918 32.8146 25.6781 32.8146 25.6644H32.7944C32.7944 25.6644 32.8011 25.6781 32.8146 25.7054C32.8146 25.7191 32.8146 25.7328 32.8146 25.7464C32.828 25.7464 32.8348 25.7533 32.8348 25.7669C32.8348 25.7943 32.8415 25.8216 32.855 25.8489V25.9514C32.8685 25.9788 32.8752 26.0129 32.8752 26.054C32.8752 26.1223 32.8819 26.1701 32.8954 26.1974V26.3409C32.9089 26.3956 32.9156 26.4503 32.9156 26.505C32.9156 26.5596 32.9156 26.6211 32.9156 26.6895V26.874C32.9156 26.9013 32.9156 26.9355 32.9156 26.9765C32.9291 27.0038 32.9358 27.0311 32.9358 27.0585V28.4935ZM32.1072 27.5915C32.1072 27.4138 32.1004 27.161 32.0869 26.833C32.0735 26.505 32.0263 26.1769 31.9455 25.8489C31.8646 25.5209 31.7366 25.2407 31.5615 25.0084C31.3997 24.7624 31.1572 24.6394 30.8338 24.6394H30.1062C29.958 24.6394 29.8299 24.6941 29.7222 24.8034C29.6144 24.9127 29.5604 25.0426 29.5604 25.1929V30.5231C29.5604 30.6735 29.6144 30.8033 29.7222 30.9126C29.8299 31.0083 29.958 31.063 30.1062 31.0766H30.8338C31.1572 31.0766 31.3997 30.9946 31.5615 30.8306C31.7366 30.6529 31.8646 30.4479 31.9455 30.2156C32.0263 29.9832 32.0735 29.7373 32.0869 29.4776C32.1004 29.2179 32.1072 28.9992 32.1072 28.8215V27.5915ZM32.1072 19.2887C32.1072 19.111 32.1004 18.8992 32.0869 18.6532C32.0735 18.3935 32.0263 18.1475 31.9455 17.9151C31.8646 17.6828 31.7366 17.4846 31.5615 17.3206C31.3997 17.1429 31.1572 17.0541 30.8338 17.0541H30.1062C29.958 17.0541 29.8299 17.1088 29.7222 17.2181C29.6144 17.3275 29.5604 17.4573 29.5604 17.6076V23.1223C29.5604 23.2727 29.6144 23.4025 29.7222 23.5118C29.8299 23.6212 29.958 23.6758 30.1062 23.6758H30.8338C31.1572 23.6758 31.3997 23.5939 31.5615 23.4299C31.7366 23.2659 31.8646 23.0677 31.9455 22.8353C32.0263 22.5893 32.0735 22.3433 32.0869 22.0973C32.1004 21.8376 32.1072 21.6189 32.1072 21.4413V19.2887ZM33.0167 21.9948C33.0437 21.9128 33.0571 21.8581 33.0571 21.8308C33.0841 21.7761 33.0976 21.7214 33.0976 21.6668C33.111 21.6395 33.1178 21.6121 33.1178 21.5848C33.1178 21.5438 33.1245 21.5096 33.138 21.4823C33.138 21.4549 33.138 21.4276 33.138 21.4003C33.1515 21.3593 33.1582 21.3183 33.1582 21.2773C33.1717 21.2363 33.1784 21.1679 33.1784 21.0723C33.1919 21.0039 33.1986 20.9356 33.1986 20.8672C33.1986 20.7989 33.2054 20.7306 33.2188 20.6622V20.2112C33.2188 20.0609 33.2188 19.9174 33.2188 19.7807C33.2188 19.6304 33.2121 19.4869 33.1986 19.3502C33.1851 19.3092 33.1784 19.275 33.1784 19.2477C33.1784 19.2067 33.1717 19.1725 33.1582 19.1452C33.1582 19.0495 33.1515 18.9812 33.138 18.9402C33.1245 18.8718 33.111 18.8103 33.0976 18.7557C33.0976 18.701 33.0908 18.6463 33.0773 18.5917C33.0504 18.5097 33.0369 18.455 33.0369 18.4277C33.01 18.373 32.9965 18.332 32.9965 18.3046C32.9695 18.25 32.9494 18.209 32.9358 18.1817C32.9358 18.1406 32.9224 18.1065 32.8954 18.0791C32.8819 18.0381 32.8618 17.9903 32.8348 17.9356L32.7944 17.8947V17.9151C32.7944 17.9288 32.7944 17.9356 32.7944 17.9356C32.8079 17.9356 32.8146 17.9425 32.8146 17.9562C32.828 17.9698 32.8348 17.9903 32.8348 18.0176C32.8348 18.045 32.8415 18.0723 32.855 18.0996V18.2021C32.8685 18.2295 32.8752 18.2705 32.8752 18.3252C32.8752 18.3525 32.8752 18.3798 32.8752 18.4071C32.8887 18.4208 32.8954 18.4413 32.8954 18.4686V18.6122C32.9089 18.6668 32.9156 18.7215 32.9156 18.7762C32.9156 18.8308 32.9156 18.8924 32.9156 18.9607V19.1657C32.9156 19.193 32.9156 19.2272 32.9156 19.2682C32.9291 19.2955 32.9358 19.3229 32.9358 19.3502V20.8672C32.9224 20.9083 32.9156 20.9766 32.9156 21.0723V21.4618C32.9156 21.5301 32.9089 21.5916 32.8954 21.6463C32.8954 21.701 32.8954 21.7556 32.8954 21.8103C32.8954 21.865 32.8887 21.9196 32.8752 21.9743C32.8752 22.0153 32.8752 22.0563 32.8752 22.0973C32.8752 22.1656 32.8685 22.2066 32.855 22.2203V22.3433C32.8415 22.3433 32.8348 22.357 32.8348 22.3843V22.4253C32.8348 22.439 32.828 22.4526 32.8146 22.4663C32.8146 22.4663 32.8146 22.4732 32.8146 22.4868C32.8146 22.5005 32.8079 22.5141 32.7944 22.5278L32.8348 22.4868C32.8348 22.4732 32.8348 22.4663 32.8348 22.4663C32.8483 22.4526 32.855 22.439 32.855 22.4253C32.8685 22.4253 32.8752 22.4116 32.8752 22.3843C32.8887 22.3843 32.8954 22.3707 32.8954 22.3433C32.9089 22.3433 32.9156 22.3296 32.9156 22.3023C32.9291 22.2886 32.9358 22.2681 32.9358 22.2408C32.9628 22.2135 32.9763 22.1793 32.9763 22.1383C33.0032 22.0563 33.0167 22.0085 33.0167 21.9948Z" fill="#F4EDE8"/>
<path d="M41.6319 30.1336C41.6858 30.3659 41.7465 30.5368 41.8137 30.6461C41.8813 30.7554 41.9485 30.8443 42.016 30.9126C42.0832 30.9809 42.1439 31.0424 42.1978 31.0971C42.2517 31.1518 42.2923 31.2406 42.3193 31.3637H41.2478C41.1537 31.3637 41.066 31.3295 40.9851 31.2611C40.9176 31.1928 40.8774 31.1108 40.8637 31.0151C40.8774 31.1108 40.8572 31.1928 40.8033 31.2611C40.7494 31.3295 40.6819 31.3637 40.601 31.3637H39.53C39.503 31.2406 39.5098 31.1518 39.5501 31.0971C39.5907 31.0424 39.6309 30.9878 39.6715 30.9331C39.7118 30.8648 39.7455 30.7759 39.7725 30.6666C39.7994 30.5436 39.7926 30.3591 39.7524 30.1131V30.0926L39.3075 27.776C39.2806 27.6393 39.2066 27.5232 39.0851 27.4275C38.964 27.3182 38.8293 27.2635 38.6809 27.2635H37.2864C37.138 27.2635 37.0033 27.3182 36.8822 27.4275C36.7608 27.5232 36.6868 27.6393 36.6598 27.776L36.2355 30.0926V30.1131C36.1949 30.3591 36.1816 30.5436 36.1949 30.6666C36.2218 30.7759 36.2556 30.8648 36.2958 30.9331C36.3497 30.9878 36.3903 31.0424 36.4173 31.0971C36.4575 31.1518 36.4712 31.2406 36.4575 31.3637H35.3864C35.2921 31.3637 35.218 31.3295 35.1641 31.2611C35.1102 31.1928 35.09 31.1108 35.1034 31.0151C35.09 31.1108 35.0495 31.1928 34.9822 31.2611C34.9148 31.3295 34.834 31.3637 34.7396 31.3637H33.6684C33.6819 31.2406 33.7155 31.1518 33.7694 31.0971C33.8233 31.0424 33.884 30.9809 33.9513 30.9126C34.0187 30.8443 34.0861 30.7554 34.1535 30.6461C34.2208 30.5368 34.2815 30.3659 34.3354 30.1336L35.2449 25.1519C35.2719 24.9606 35.2516 24.7829 35.1843 24.6189C35.1169 24.4549 35.0091 24.3251 34.8609 24.2294C35.0765 24.1337 35.2719 24.0859 35.447 24.0859L36.5384 18.2431C36.579 18.0108 36.5858 17.84 36.5588 17.7306C36.5319 17.6076 36.4981 17.5188 36.4575 17.4641C36.4173 17.3958 36.3767 17.3343 36.3364 17.2796C36.2958 17.225 36.2894 17.1361 36.3163 17.0131H37.6702C37.8725 17.0404 37.9734 17.1566 37.9734 17.3616C37.9734 17.266 38.0004 17.1908 38.0543 17.1361C38.1218 17.0678 38.1958 17.0268 38.2767 17.0131H39.651C39.678 17.1361 39.6715 17.225 39.6309 17.2796C39.604 17.3343 39.5702 17.3958 39.53 17.4641C39.4894 17.5188 39.4556 17.6076 39.4286 17.7306C39.4017 17.84 39.4085 18.0108 39.4491 18.2431L40.5202 24.0859C40.628 24.0859 40.729 24.0996 40.8235 24.1269C40.9176 24.1542 41.0121 24.1884 41.1062 24.2294C40.8098 24.4207 40.6819 24.7282 40.7225 25.1519L41.6319 30.1336ZM36.7809 22.7943C36.8078 22.7123 36.8215 22.6372 36.8215 22.5688C36.8348 22.4868 36.8484 22.4116 36.8617 22.3433C36.9293 22.029 36.9832 21.7351 37.0234 21.4618C37.064 21.1748 37.1043 20.9151 37.1449 20.6828C37.1718 20.5734 37.1851 20.4641 37.1851 20.3547C37.1988 20.2454 37.2121 20.1361 37.2257 20.0267C37.239 19.931 37.2527 19.8422 37.266 19.7602C37.2796 19.6782 37.2929 19.603 37.3066 19.5347C37.3199 19.4664 37.3267 19.4049 37.3267 19.3502C37.3267 19.2819 37.3335 19.2272 37.3468 19.1862V19.1042L37.3267 19.1862C37.3134 19.2272 37.2997 19.275 37.2864 19.3297C37.2728 19.3844 37.2595 19.4459 37.2458 19.5142C37.2189 19.5825 37.1988 19.6645 37.1851 19.7602C37.1718 19.8422 37.1517 19.9242 37.1248 20.0062C37.0978 20.1156 37.0709 20.2249 37.0439 20.3342C37.0303 20.4436 37.0101 20.5529 36.9832 20.6622C36.9156 20.8946 36.8484 21.1474 36.7809 21.4208C36.727 21.6805 36.6666 21.9675 36.5991 22.2818C36.5991 22.3638 36.5923 22.439 36.579 22.5073C36.5653 22.5757 36.5452 22.6508 36.5182 22.7328C36.5049 22.8148 36.4913 22.8968 36.478 22.9788C36.4643 23.0471 36.4511 23.1223 36.4374 23.2044C36.3972 23.3547 36.3566 23.5118 36.3163 23.6758C36.2894 23.8399 36.2624 24.0039 36.2355 24.1679C36.2085 24.3182 36.1747 24.4754 36.1341 24.6394C36.1072 24.8034 36.0802 24.9606 36.0533 25.1109C36.04 25.1519 36.0332 25.1929 36.0332 25.2339C36.0332 25.2613 36.0263 25.2954 36.0131 25.3364C35.9861 25.4457 35.9725 25.5278 35.9725 25.5824C35.9322 25.7191 35.9052 25.8694 35.8917 26.0334C35.8648 26.1838 35.8378 26.3341 35.8109 26.4845C35.7839 26.6348 35.7637 26.7715 35.7502 26.8945C35.7098 27.2088 35.6694 27.4685 35.629 27.6735C35.602 27.7829 35.5818 27.8922 35.5683 28.0015C35.5548 28.1109 35.5414 28.2202 35.5279 28.3295C35.5009 28.4252 35.4807 28.5209 35.4673 28.6165C35.4673 28.6985 35.4605 28.7737 35.447 28.8421C35.4336 28.9104 35.4268 28.9719 35.4268 29.0265C35.4268 29.0812 35.4201 29.1291 35.4066 29.1701C35.4066 29.1974 35.3999 29.2179 35.3864 29.2316C35.3864 29.2316 35.3864 29.2384 35.3864 29.252V29.2726C35.3999 29.2726 35.4066 29.2657 35.4066 29.252C35.4066 29.2247 35.4134 29.1974 35.4268 29.1701C35.4403 29.1427 35.447 29.1017 35.447 29.0471C35.4605 28.9787 35.4807 28.9104 35.5077 28.8421C35.5346 28.7737 35.5548 28.6985 35.5683 28.6165C35.5953 28.5345 35.6222 28.4457 35.6491 28.35C35.6761 28.2544 35.6963 28.1519 35.7098 28.0425C35.7367 27.9332 35.7569 27.8238 35.7704 27.7145C35.7974 27.6052 35.8243 27.489 35.8513 27.366C35.8917 27.2293 35.9254 27.0926 35.9523 26.956C35.9793 26.8193 36.0062 26.6758 36.0332 26.5255C36.0738 26.3751 36.114 26.2248 36.1546 26.0744C36.1679 26.0061 36.1816 25.9378 36.1949 25.8694C36.2085 25.7874 36.2218 25.7123 36.2355 25.6439L36.2958 25.3979C36.3095 25.3569 36.3163 25.3159 36.3163 25.2749C36.3163 25.2339 36.3228 25.1929 36.3364 25.1519C36.3634 25.0016 36.3972 24.8512 36.4374 24.7009C36.478 24.5369 36.5114 24.3729 36.5384 24.2089C36.5653 24.0585 36.5923 23.9014 36.6192 23.7374C36.6462 23.5734 36.6731 23.4162 36.7001 23.2658C36.7137 23.1838 36.727 23.1018 36.7407 23.0198C36.7539 22.9378 36.7676 22.8627 36.7809 22.7943ZM38.4991 26.2999C38.6471 26.2863 38.7618 26.2316 38.8426 26.1359C38.9371 26.0266 38.9705 25.8968 38.9436 25.7464L38.8225 25.1519C38.7686 24.9606 38.6741 24.7829 38.5393 24.6189C38.4183 24.4549 38.2699 24.3251 38.0949 24.2294C38.2566 24.1337 38.4316 24.0859 38.6202 24.0859L37.9734 20.5803L37.3267 24.0859C37.502 24.0859 37.6838 24.1337 37.8725 24.2294C37.6838 24.3251 37.5221 24.4549 37.3874 24.6189C37.266 24.7829 37.1851 24.9606 37.1449 25.1519L37.0439 25.7464C37.017 25.8968 37.0439 26.0266 37.1248 26.1359C37.2056 26.2316 37.3134 26.2863 37.4481 26.2999H38.4991ZM40.5403 29.1701C40.5403 29.1974 40.5403 29.2179 40.5403 29.2316C40.554 29.2316 40.5608 29.2384 40.5608 29.252V29.1701C40.5472 29.1291 40.5403 29.0812 40.5403 29.0265C40.5403 28.9719 40.5339 28.9104 40.5202 28.8421C40.5069 28.7737 40.4933 28.6985 40.48 28.6165C40.48 28.5209 40.4663 28.4252 40.4394 28.3295C40.4261 28.2202 40.4124 28.1109 40.3991 28.0015C40.3855 27.8922 40.3653 27.7829 40.3384 27.6735C40.2978 27.4685 40.2576 27.2088 40.217 26.8945C40.19 26.7715 40.1631 26.6348 40.1361 26.4845C40.1228 26.3341 40.1027 26.1838 40.0757 26.0334C40.0488 25.9514 40.0283 25.8763 40.015 25.8079C40.015 25.7396 40.0014 25.6644 39.9744 25.5824C39.9744 25.5278 39.9611 25.4457 39.9342 25.3364C39.9342 25.2954 39.9273 25.2613 39.9141 25.2339C39.9141 25.1929 39.9141 25.1519 39.9141 25.1109C39.8871 24.9606 39.8533 24.8034 39.8127 24.6394C39.7858 24.4754 39.7588 24.3182 39.7319 24.1679C39.7049 24.0039 39.6715 23.8399 39.6309 23.6758C39.604 23.5118 39.5702 23.3547 39.53 23.2044C39.5163 23.1223 39.503 23.0471 39.4894 22.9788C39.4761 22.8968 39.4624 22.8148 39.4491 22.7328C39.4222 22.6508 39.4017 22.5757 39.3884 22.5073C39.3747 22.439 39.3614 22.3638 39.3478 22.2818C39.2806 21.9675 39.213 21.6805 39.1459 21.4208C39.092 21.1474 39.0449 20.8946 39.0043 20.6622C38.9773 20.5529 38.9504 20.4436 38.9234 20.3342C38.8965 20.2249 38.8695 20.1156 38.8426 20.0062C38.8157 19.9242 38.7887 19.8422 38.7618 19.7602C38.7485 19.6645 38.728 19.5825 38.701 19.5142C38.6877 19.4459 38.6741 19.3844 38.6608 19.3297C38.6471 19.275 38.6338 19.2272 38.6202 19.1862L38.6001 19.1042V19.1862C38.6137 19.2545 38.6338 19.3707 38.6608 19.5347C38.6608 19.603 38.6676 19.6782 38.6809 19.7602C38.6946 19.8422 38.7079 19.931 38.7215 20.0267C38.7348 20.1361 38.7485 20.2454 38.7618 20.3547C38.7754 20.4641 38.7955 20.5734 38.8225 20.6828C38.8627 20.9151 38.9033 21.1748 38.9436 21.4618C38.9842 21.7351 39.0312 22.029 39.0851 22.3433C39.0988 22.4116 39.1053 22.4868 39.1053 22.5688C39.1189 22.6372 39.139 22.7123 39.166 22.7943C39.1796 22.8627 39.1929 22.9378 39.2066 23.0198C39.2199 23.1018 39.2335 23.1838 39.2468 23.2658C39.2738 23.4162 39.3007 23.5734 39.3277 23.7374C39.3683 23.9014 39.4017 24.0585 39.4286 24.2089C39.4556 24.3729 39.4894 24.5369 39.53 24.7009C39.5702 24.8512 39.604 25.0016 39.6309 25.1519C39.6446 25.1929 39.651 25.2339 39.651 25.2749C39.651 25.3159 39.6579 25.3569 39.6715 25.3979L39.7319 25.6439C39.7455 25.7123 39.7588 25.7874 39.7725 25.8694C39.7858 25.9378 39.7994 26.0061 39.8127 26.0744C39.8533 26.2248 39.8871 26.3751 39.9141 26.5255C39.941 26.6758 39.9679 26.8193 39.9949 26.956C40.0218 27.0926 40.0488 27.2293 40.0757 27.366C40.116 27.489 40.1498 27.6052 40.1767 27.7145C40.2037 27.8238 40.2306 27.9332 40.2576 28.0425C40.2845 28.1519 40.3114 28.2544 40.3384 28.35C40.3786 28.5414 40.4192 28.7054 40.4595 28.8421C40.4864 28.9104 40.5001 28.9787 40.5001 29.0471C40.5134 29.1017 40.527 29.1427 40.5403 29.1701Z" fill="#F4EDE8"/>
<path d="M50.1123 32.2247C50.2607 32.252 50.3616 32.2998 50.4155 32.3682C50.4827 32.4365 50.5301 32.5048 50.5571 32.5732C50.584 32.6552 50.5973 32.744 50.5973 32.8397C50.1662 32.8397 49.7619 32.785 49.3847 32.6757C49.0074 32.5663 48.6704 32.3887 48.3739 32.1427C48.0912 31.8967 47.8619 31.5755 47.6869 31.1791C47.5253 30.7828 47.4444 30.2976 47.4444 29.7236V26.915C47.4444 26.7373 47.4376 26.5186 47.4239 26.259C47.4106 25.9993 47.3636 25.7533 47.2827 25.5209C47.2019 25.2886 47.0736 25.0904 46.8986 24.9264C46.7369 24.7487 46.4944 24.6599 46.171 24.6599H45.3421C45.221 24.6872 45.1132 24.7556 45.0187 24.8649C44.9379 24.9606 44.8976 25.0767 44.8976 25.2134V30.1131C44.8976 30.3591 44.9178 30.5436 44.9584 30.6666C45.0123 30.7759 45.0662 30.8648 45.1201 30.9331C45.174 30.9878 45.221 31.0424 45.2613 31.0971C45.3152 31.1518 45.3421 31.2406 45.3421 31.3637H44.271C44.1902 31.3637 44.1162 31.3295 44.0486 31.2611C43.9814 31.1928 43.9476 31.1176 43.9476 31.0356C43.9476 31.1176 43.9139 31.1928 43.8467 31.2611C43.7928 31.3295 43.7184 31.3637 43.6243 31.3637H42.5733C42.5733 31.2406 42.5934 31.1518 42.6337 31.0971C42.6875 31.0424 42.7418 30.9878 42.7957 30.9331C42.8496 30.8648 42.8967 30.7759 42.9369 30.6666C42.9908 30.5573 43.0178 30.3864 43.0178 30.1541V25.1519C42.9775 24.7282 42.7889 24.4207 42.4518 24.2294C42.6002 24.1337 42.7889 24.0859 43.0178 24.0859V18.2227C43.0178 17.9903 42.9908 17.8195 42.9369 17.7101C42.8967 17.6008 42.8496 17.5188 42.7957 17.4641C42.7418 17.3958 42.6875 17.3343 42.6337 17.2796C42.5934 17.225 42.5733 17.1361 42.5733 17.0131H43.6444C43.7252 17.0131 43.7992 17.0473 43.8668 17.1156C43.934 17.1703 43.9678 17.2454 43.9678 17.3411C43.9678 17.1224 44.0756 17.0131 44.2911 17.0131H46.1912C46.6223 17.0131 47.0265 17.0951 47.4038 17.2591C47.7811 17.4231 48.1113 17.6486 48.3944 17.9356C48.6772 18.209 48.8996 18.537 49.0613 18.9197C49.223 19.3023 49.3107 19.7055 49.324 20.1292V21.4618C49.324 22.0358 49.1892 22.562 48.9197 23.0403C48.6503 23.5187 48.2866 23.9014 47.8282 24.1884C48.2866 24.4617 48.6503 24.8444 48.9197 25.3364C49.1892 25.8148 49.324 26.3409 49.324 26.915V29.6416C49.324 29.9286 49.324 30.2224 49.324 30.5231C49.3376 30.8101 49.371 31.0766 49.4249 31.3226C49.4788 31.555 49.5597 31.7532 49.6675 31.9172C49.7752 32.0812 49.9236 32.1837 50.1123 32.2247ZM48.273 21.1133C48.2593 21.1406 48.2529 21.1748 48.2529 21.2158V21.6873C48.2392 21.742 48.2324 21.7966 48.2324 21.8513C48.2324 21.8923 48.2324 21.9333 48.2324 21.9743C48.2324 22.0016 48.2259 22.0221 48.2123 22.0358C48.2123 22.0494 48.2123 22.07 48.2123 22.0973V22.2203C48.199 22.2476 48.1921 22.2818 48.1921 22.3228C48.1921 22.3501 48.1853 22.3775 48.172 22.4048C48.172 22.4321 48.1652 22.4526 48.1515 22.4663V22.5073L48.1314 22.5483C48.1314 22.5483 48.1451 22.5415 48.172 22.5278V22.5073L48.1921 22.4868C48.2054 22.4732 48.2123 22.4663 48.2123 22.4663C48.2123 22.4526 48.2191 22.439 48.2324 22.4253C48.246 22.398 48.2593 22.3707 48.273 22.3433C48.2863 22.3023 48.2999 22.2681 48.3136 22.2408C48.3269 22.2135 48.3337 22.1998 48.3337 22.1998C48.3337 22.1861 48.3402 22.1656 48.3538 22.1383C48.3675 22.111 48.3739 22.0905 48.3739 22.0768C48.3739 22.0494 48.3808 22.0221 48.3944 21.9948C48.4077 21.9675 48.4145 21.947 48.4145 21.9333C48.4145 21.9196 48.4214 21.8991 48.4347 21.8718C48.4347 21.8445 48.4347 21.8239 48.4347 21.8103C48.4483 21.7829 48.4548 21.7556 48.4548 21.7283C48.4684 21.6736 48.4753 21.6189 48.4753 21.5643C48.4886 21.5096 48.5022 21.4549 48.5155 21.4003C48.5292 21.3593 48.5356 21.2978 48.5356 21.2158C48.5356 21.1884 48.5356 21.1611 48.5356 21.1338C48.5493 21.1064 48.5561 21.0791 48.5561 21.0518V20.3342C48.5561 20.2522 48.5493 20.1907 48.5356 20.1497V20.0677C48.5356 20.0404 48.5292 20.0267 48.5155 20.0267C48.5155 20.0131 48.5155 19.9925 48.5155 19.9652C48.5155 19.8969 48.5022 19.7944 48.4753 19.6577C48.4616 19.6304 48.4548 19.603 48.4548 19.5757C48.4548 19.5484 48.4483 19.5211 48.4347 19.4937C48.4347 19.48 48.4278 19.4732 48.4145 19.4732C48.4145 19.4595 48.4145 19.4459 48.4145 19.4322C48.4145 19.4185 48.4077 19.4117 48.3944 19.4117C48.3944 19.398 48.3944 19.3844 48.3944 19.3707C48.3808 19.3434 48.3739 19.3229 48.3739 19.3092C48.3739 19.2955 48.3675 19.275 48.3538 19.2477C48.3402 19.2204 48.3337 19.1998 48.3337 19.1862C48.3337 19.1725 48.3269 19.152 48.3136 19.1247C48.2999 19.111 48.2931 19.0973 48.2931 19.0837C48.2931 19.07 48.2863 19.0564 48.273 19.0427C48.246 18.988 48.2324 18.9607 48.2324 18.9607C48.2191 18.947 48.2123 18.9402 48.2123 18.9402C48.2123 18.9265 48.2054 18.9128 48.1921 18.8992C48.1785 18.8855 48.172 18.8718 48.172 18.8582C48.1584 18.8445 48.1515 18.8308 48.1515 18.8172H48.1314C48.1314 18.8172 48.1382 18.8308 48.1515 18.8582V18.8992C48.1652 18.9128 48.172 18.9402 48.172 18.9812C48.172 18.9948 48.172 19.0085 48.172 19.0222C48.1853 19.0222 48.1921 19.0358 48.1921 19.0632C48.1921 19.1042 48.199 19.1383 48.2123 19.1657V19.2682C48.2123 19.2955 48.2123 19.316 48.2123 19.3297C48.2259 19.3434 48.2324 19.3638 48.2324 19.3912C48.2324 19.5142 48.2392 19.6099 48.2529 19.6782V20.0062C48.2662 20.0746 48.273 20.1839 48.273 20.3342V21.1133ZM44.1093 23.2248C44.1093 23.1565 44.1025 23.0813 44.0892 22.9993C44.0892 22.9173 44.0892 22.8353 44.0892 22.7533V22.3023C44.0756 22.0016 44.0687 21.7146 44.0687 21.4413C44.0687 21.1679 44.0623 20.9083 44.0486 20.6622C44.0353 20.5529 44.0285 20.4436 44.0285 20.3342C44.0285 20.2249 44.0217 20.1224 44.0084 20.0267C44.0084 19.9174 44.0015 19.8217 43.9879 19.7397C43.9879 19.6577 43.9879 19.5825 43.9879 19.5142C43.9879 19.4459 43.9814 19.3844 43.9678 19.3297C43.9678 19.275 43.9678 19.2272 43.9678 19.1862V19.0837C43.9545 19.0837 43.9476 19.0905 43.9476 19.1042V19.1862C43.9476 19.2272 43.9408 19.275 43.9275 19.3297C43.9275 19.3844 43.9275 19.4459 43.9275 19.5142C43.9275 19.5825 43.9207 19.6577 43.907 19.7397C43.907 19.8217 43.907 19.9174 43.907 20.0267C43.8937 20.1224 43.8869 20.2249 43.8869 20.3342C43.8869 20.4436 43.8801 20.5529 43.8668 20.6622C43.8531 20.9083 43.8467 21.1679 43.8467 21.4413C43.8467 21.7146 43.8398 22.0016 43.8262 22.3023V22.7533C43.8262 22.8353 43.8197 22.9173 43.8061 22.9993C43.8061 23.0813 43.8061 23.1565 43.8061 23.2248V25.1314C43.8061 25.2407 43.8129 25.3228 43.8262 25.3774V26.054C43.8262 26.2043 43.8262 26.3546 43.8262 26.505C43.8398 26.6416 43.8467 26.7783 43.8467 26.915C43.8467 27.0653 43.8467 27.202 43.8467 27.325C43.86 27.448 43.8668 27.571 43.8668 27.694C43.8801 27.817 43.8869 27.9332 43.8869 28.0425C43.8869 28.1382 43.8937 28.2407 43.907 28.35C43.907 28.4457 43.907 28.5345 43.907 28.6165C43.9207 28.6985 43.9275 28.7737 43.9275 28.8421C43.9275 28.9104 43.9275 28.9787 43.9275 29.0471C43.9408 29.1017 43.9476 29.1427 43.9476 29.1701V29.2726C43.9476 29.2862 43.9545 29.2931 43.9678 29.2931V29.1701C43.9678 29.1427 43.9678 29.1017 43.9678 29.0471C43.9814 28.9787 43.9879 28.9104 43.9879 28.8421C43.9879 28.7737 43.9879 28.6985 43.9879 28.6165C44.0015 28.5345 44.0084 28.4457 44.0084 28.35C44.0217 28.2407 44.0285 28.1382 44.0285 28.0425C44.0285 27.9332 44.0353 27.817 44.0486 27.694C44.0486 27.571 44.0486 27.448 44.0486 27.325C44.0623 27.202 44.0687 27.0653 44.0687 26.915C44.0687 26.7783 44.0687 26.6416 44.0687 26.505C44.0824 26.3546 44.0892 26.2043 44.0892 26.054V25.6029C44.0892 25.4936 44.0957 25.4184 44.1093 25.3774V23.2248ZM47.4444 20.2112C47.4444 20.0335 47.4376 19.8149 47.4239 19.5552C47.4106 19.2955 47.3636 19.0495 47.2827 18.8172C47.2019 18.5848 47.0736 18.3867 46.8986 18.2227C46.7369 18.045 46.4944 17.9562 46.171 17.9562H45.4434C45.295 17.9698 45.1671 18.0313 45.0593 18.1406C44.9515 18.25 44.8976 18.3798 44.8976 18.5302V23.1428C44.8976 23.2932 44.9515 23.423 45.0593 23.5324C45.1671 23.6417 45.295 23.6964 45.4434 23.6964H46.171C46.4944 23.6964 46.7369 23.6143 46.8986 23.4503C47.0736 23.2863 47.2019 23.0882 47.2827 22.8558C47.3636 22.6098 47.4106 22.3638 47.4239 22.1178C47.4376 21.8581 47.4444 21.6395 47.4444 21.4618V20.2112ZM48.7986 31.4456C48.7986 31.4456 48.7918 31.4388 48.7782 31.4251L48.758 31.4046C48.7447 31.3773 48.7311 31.35 48.7178 31.3226C48.7178 31.2953 48.7042 31.268 48.6772 31.2406C48.6639 31.1996 48.6503 31.1586 48.637 31.1176C48.6233 31.063 48.61 31.0015 48.5964 30.9331C48.5694 30.7965 48.5561 30.6666 48.5561 30.5436C48.5425 30.4753 48.5356 30.4069 48.5356 30.3386C48.5356 30.2566 48.5356 30.1678 48.5356 30.0721V28.9855C48.5356 28.8899 48.5356 28.7942 48.5356 28.6985C48.5356 28.6029 48.5425 28.5004 48.5561 28.391C48.5561 28.2953 48.5561 28.1997 48.5561 28.104C48.5561 28.0084 48.5493 27.9127 48.5356 27.817V27.53C48.5356 27.3933 48.5292 27.2976 48.5155 27.243C48.5155 27.1473 48.5087 27.0585 48.4954 26.9765C48.4954 26.8808 48.4886 26.792 48.4753 26.71C48.4483 26.5186 48.4214 26.3546 48.3944 26.218C48.3808 26.1496 48.3675 26.0881 48.3538 26.0334C48.3402 25.9651 48.3201 25.8968 48.2931 25.8284C48.2662 25.7601 48.246 25.7054 48.2324 25.6644C48.2191 25.6234 48.199 25.5824 48.172 25.5414C48.1451 25.5004 48.1246 25.4662 48.1113 25.4389C48.0976 25.4116 48.0843 25.3843 48.0707 25.3569C48.0574 25.3569 48.0437 25.3501 48.0304 25.3364C48.0168 25.3364 48.0103 25.3296 48.0103 25.3159L48.0304 25.3364C48.0304 25.3501 48.0373 25.3638 48.0506 25.3774C48.0506 25.3911 48.0506 25.4047 48.0506 25.4184C48.0642 25.4184 48.0707 25.4321 48.0707 25.4594C48.0843 25.4731 48.0912 25.4868 48.0912 25.5004C48.0912 25.5141 48.0976 25.5346 48.1113 25.5619C48.1246 25.6166 48.1451 25.7123 48.172 25.8489C48.1853 25.9173 48.1921 25.9856 48.1921 26.054C48.2054 26.1223 48.2191 26.1906 48.2324 26.259C48.2324 26.3273 48.2324 26.4024 48.2324 26.4845C48.246 26.5528 48.2529 26.6348 48.2529 26.7304V29.2726C48.2529 29.3272 48.2529 29.3751 48.2529 29.4161C48.2662 29.4571 48.273 29.5049 48.273 29.5596C48.273 29.6552 48.273 29.7509 48.273 29.8466C48.2863 29.9286 48.2999 30.0106 48.3136 30.0926C48.3269 30.1746 48.3337 30.2566 48.3337 30.3386C48.347 30.4206 48.3607 30.4958 48.3739 30.5641C48.4009 30.6461 48.4214 30.7213 48.4347 30.7896C48.4483 30.8443 48.4684 30.9058 48.4954 30.9741C48.5223 31.0424 48.5425 31.0971 48.5561 31.1381C48.5694 31.1791 48.5895 31.2201 48.6165 31.2611L48.6571 31.3021C48.6704 31.3158 48.6772 31.3295 48.6772 31.3431C48.6772 31.3431 48.684 31.35 48.6973 31.3637L48.7782 31.4456H48.7986Z" fill="#F4EDE8"/>
<path d="M56.1726 21.4618C56.1726 22.0358 56.0379 22.562 55.7684 23.0403C55.4989 23.5187 55.135 23.9014 54.6769 24.1884C55.135 24.4617 55.4989 24.8444 55.7684 25.3364C56.0379 25.8148 56.1726 26.3409 56.1726 26.915V28.2475C56.1594 28.6849 56.0717 29.0949 55.91 29.4776C55.7483 29.8466 55.5259 30.1746 55.2428 30.4616C54.96 30.735 54.6298 30.9536 54.2525 31.1176C53.8752 31.2816 53.471 31.3637 53.0398 31.3637H51.1197C51.0389 31.3637 50.9648 31.3295 50.8973 31.2611C50.8301 31.1928 50.7963 31.1176 50.7963 31.0356C50.7963 31.1176 50.7626 31.1928 50.6954 31.2611C50.6415 31.3295 50.5671 31.3637 50.473 31.3637H49.422C49.422 31.2406 49.4421 31.1518 49.4823 31.0971C49.5362 31.0424 49.5901 30.9878 49.644 30.9331C49.6979 30.8648 49.7454 30.7759 49.7856 30.6666C49.8395 30.5573 49.8664 30.3864 49.8664 30.1541V25.1519C49.8262 24.7282 49.6376 24.4207 49.3005 24.2294C49.4489 24.1337 49.6376 24.0859 49.8664 24.0859V18.2227C49.8664 17.9903 49.8395 17.8195 49.7856 17.7101C49.7454 17.6008 49.6979 17.5188 49.644 17.4641C49.5901 17.3958 49.5362 17.3343 49.4823 17.2796C49.4421 17.225 49.422 17.1361 49.422 17.0131H50.4931C50.5739 17.0131 50.6479 17.0473 50.7155 17.1156C50.7827 17.1703 50.8165 17.2454 50.8165 17.3411C50.8165 17.1224 50.9242 17.0131 51.1398 17.0131H53.0398C53.471 17.0131 53.8752 17.0951 54.2525 17.2591C54.6298 17.4231 54.96 17.6486 55.2428 17.9356C55.5259 18.209 55.7483 18.537 55.91 18.9197C56.0717 19.3023 56.1594 19.7055 56.1726 20.1292V21.4618ZM50.958 23.2248C50.958 23.1565 50.9512 23.0813 50.9379 22.9993C50.9379 22.9173 50.9379 22.8353 50.9379 22.7533V22.3023C50.9242 22.0016 50.9174 21.7146 50.9174 21.4413C50.9174 21.1679 50.911 20.9083 50.8973 20.6622C50.884 20.5529 50.8772 20.4436 50.8772 20.3342C50.8772 20.2249 50.8704 20.1224 50.8571 20.0267C50.8571 19.9174 50.8502 19.8217 50.8366 19.7397C50.8366 19.6577 50.8366 19.5825 50.8366 19.5142C50.8366 19.4459 50.8301 19.3844 50.8165 19.3297C50.8165 19.275 50.8165 19.2272 50.8165 19.1862V19.0837C50.8032 19.0837 50.7963 19.0905 50.7963 19.1042V19.1862C50.7963 19.2272 50.7895 19.275 50.7762 19.3297C50.7762 19.3844 50.7762 19.4459 50.7762 19.5142C50.7762 19.5825 50.7694 19.6577 50.7557 19.7397C50.7557 19.8217 50.7557 19.9174 50.7557 20.0267C50.7424 20.1224 50.7356 20.2249 50.7356 20.3342C50.7356 20.4436 50.7288 20.5529 50.7155 20.6622C50.7018 20.9083 50.6954 21.1679 50.6954 21.4413C50.6954 21.7146 50.6885 22.0016 50.6749 22.3023V22.7533C50.6749 22.8353 50.6684 22.9173 50.6548 22.9993C50.6548 23.0813 50.6548 23.1565 50.6548 23.2248V25.1314C50.6548 25.2407 50.6616 25.3228 50.6749 25.3774V26.054C50.6749 26.2043 50.6749 26.3546 50.6749 26.505C50.6885 26.6416 50.6954 26.7783 50.6954 26.915C50.6954 27.0653 50.6954 27.202 50.6954 27.325C50.7087 27.448 50.7155 27.571 50.7155 27.694C50.7288 27.817 50.7356 27.9332 50.7356 28.0425C50.7356 28.1382 50.7424 28.2407 50.7557 28.35C50.7557 28.4457 50.7557 28.5345 50.7557 28.6165C50.7694 28.6985 50.7762 28.7737 50.7762 28.8421C50.7762 28.9104 50.7762 28.9787 50.7762 29.0471C50.7895 29.1017 50.7963 29.1427 50.7963 29.1701V29.2726C50.7963 29.2862 50.8032 29.2931 50.8165 29.2931V29.1701C50.8165 29.1427 50.8165 29.1017 50.8165 29.0471C50.8301 28.9787 50.8366 28.9104 50.8366 28.8421C50.8366 28.7737 50.8366 28.6985 50.8366 28.6165C50.8502 28.5345 50.8571 28.4457 50.8571 28.35C50.8704 28.2407 50.8772 28.1382 50.8772 28.0425C50.8772 27.9332 50.884 27.817 50.8973 27.694C50.8973 27.571 50.8973 27.448 50.8973 27.325C50.911 27.202 50.9174 27.0653 50.9174 26.915C50.9174 26.7783 50.9174 26.6416 50.9174 26.505C50.9311 26.3546 50.9379 26.2043 50.9379 26.054V25.6029C50.9379 25.4936 50.9444 25.4184 50.958 25.3774V23.2248ZM55.1217 27.981C55.108 28.0084 55.1016 28.0425 55.1016 28.0835V28.555C55.0879 28.6097 55.0811 28.6644 55.0811 28.719C55.0811 28.76 55.0811 28.801 55.0811 28.8421C55.0811 28.8694 55.0746 28.8899 55.061 28.9036C55.061 28.9172 55.061 28.9377 55.061 28.965V29.088C55.0477 29.1154 55.0408 29.1496 55.0408 29.1905C55.0408 29.2179 55.034 29.2452 55.0207 29.2726C55.0207 29.2999 55.0139 29.3204 55.0002 29.3341V29.3751L54.9801 29.4161C54.9801 29.4161 54.9938 29.4093 55.0207 29.3956V29.3751L55.0408 29.3545C55.0541 29.3409 55.061 29.3341 55.061 29.3341C55.061 29.3204 55.0678 29.3067 55.0811 29.2931C55.0947 29.2657 55.108 29.2384 55.1217 29.2111C55.135 29.1701 55.1486 29.1359 55.1619 29.1086C55.1756 29.0812 55.1824 29.0676 55.1824 29.0676C55.1824 29.0539 55.1889 29.0334 55.2025 29.0061C55.2158 28.9787 55.2226 28.9582 55.2226 28.9446C55.2226 28.9309 55.2295 28.9104 55.2428 28.883C55.2564 28.8557 55.2632 28.8352 55.2632 28.8215C55.2632 28.7942 55.2697 28.7669 55.2834 28.7395C55.2834 28.7122 55.2834 28.6917 55.2834 28.6781C55.2967 28.6507 55.3035 28.6234 55.3035 28.596C55.3171 28.5414 55.3236 28.4867 55.3236 28.432C55.3373 28.3774 55.3506 28.3227 55.3642 28.268C55.3775 28.227 55.3843 28.1655 55.3843 28.0835C55.3843 28.0562 55.3843 28.0288 55.3843 28.0015C55.398 27.9742 55.4044 27.9469 55.4044 27.9195V27.202C55.4044 27.12 55.398 27.0585 55.3843 27.0175V26.9355C55.3843 26.9081 55.3775 26.8945 55.3642 26.8945C55.3642 26.8808 55.3642 26.8671 55.3642 26.8535C55.3642 26.7852 55.3574 26.7305 55.3441 26.6895C55.3441 26.6348 55.3373 26.5801 55.3236 26.5255C55.3103 26.4981 55.3035 26.4708 55.3035 26.4435C55.3035 26.4161 55.2967 26.3888 55.2834 26.3615C55.2834 26.3478 55.2765 26.3409 55.2632 26.3409C55.2632 26.3273 55.2632 26.3136 55.2632 26.2999C55.2632 26.2863 55.2564 26.2795 55.2428 26.2795C55.2428 26.2658 55.2428 26.2521 55.2428 26.2384C55.2295 26.2111 55.2226 26.1906 55.2226 26.1769C55.2226 26.1633 55.2158 26.1428 55.2025 26.1154C55.1889 26.0881 55.1824 26.0676 55.1824 26.054C55.1824 26.0403 55.1756 26.0198 55.1619 25.9925C55.1486 25.9788 55.1418 25.9651 55.1418 25.9514C55.1418 25.9378 55.135 25.9241 55.1217 25.9104C55.0947 25.8558 55.0811 25.8284 55.0811 25.8284C55.0678 25.8148 55.061 25.8079 55.061 25.8079C55.061 25.7943 55.0541 25.7806 55.0408 25.7669C55.0272 25.7533 55.0207 25.7396 55.0207 25.7259L54.9801 25.6849C54.9801 25.6849 54.9869 25.6986 55.0002 25.7259V25.7669C55.0139 25.7806 55.0207 25.8079 55.0207 25.8489C55.0207 25.8626 55.0207 25.8763 55.0207 25.89C55.034 25.89 55.0408 25.9036 55.0408 25.9309C55.0408 25.9719 55.0477 26.0061 55.061 26.0334V26.1359C55.061 26.1633 55.061 26.1838 55.061 26.1974C55.0746 26.2111 55.0811 26.2316 55.0811 26.259C55.0811 26.382 55.0879 26.4776 55.1016 26.546V26.874C55.1148 26.9423 55.1217 27.0517 55.1217 27.202V27.981ZM54.2931 26.915C54.2931 26.7373 54.2863 26.5186 54.2726 26.259C54.2593 25.9993 54.2123 25.7533 54.1311 25.5209C54.0502 25.2886 53.9223 25.0904 53.7473 24.9264C53.5856 24.7487 53.3431 24.6599 53.0197 24.6599H52.2918C52.1437 24.6735 52.0158 24.7351 51.908 24.8444C51.8002 24.9537 51.7463 25.0836 51.7463 25.2339V29.8466C51.7463 29.9969 51.8002 30.1268 51.908 30.2361C52.0158 30.3454 52.1437 30.4001 52.2918 30.4001H53.0197C53.3431 30.4001 53.5856 30.3181 53.7473 30.1541C53.9223 29.9901 54.0502 29.7919 54.1311 29.5596C54.2123 29.3136 54.2593 29.0676 54.2726 28.8215C54.2863 28.5619 54.2931 28.3432 54.2931 28.1655V26.915ZM54.2931 20.2112C54.2931 20.0335 54.2863 19.8149 54.2726 19.5552C54.2593 19.2955 54.2123 19.0495 54.1311 18.8172C54.0502 18.5848 53.9223 18.3867 53.7473 18.2227C53.5856 18.045 53.3431 17.9562 53.0197 17.9562H52.2918C52.1437 17.9698 52.0158 18.0313 51.908 18.1406C51.8002 18.25 51.7463 18.3798 51.7463 18.5302V23.1428C51.7463 23.2932 51.8002 23.423 51.908 23.5324C52.0158 23.6417 52.1437 23.6964 52.2918 23.6964H53.0197C53.3431 23.6964 53.5856 23.6143 53.7473 23.4503C53.9223 23.2863 54.0502 23.0882 54.1311 22.8558C54.2123 22.6098 54.2593 22.3638 54.2726 22.1178C54.2863 21.8581 54.2931 21.6395 54.2931 21.4618V20.2112ZM55.1619 22.2408C55.1756 22.2135 55.1824 22.1998 55.1824 22.1998C55.1824 22.1861 55.1889 22.1656 55.2025 22.1383C55.2158 22.111 55.2226 22.0905 55.2226 22.0768C55.2226 22.0495 55.2295 22.0221 55.2428 21.9948C55.2564 21.9675 55.2632 21.947 55.2632 21.9333C55.2632 21.9196 55.2697 21.8991 55.2834 21.8718C55.2834 21.8445 55.2834 21.8239 55.2834 21.8103C55.2967 21.7829 55.3035 21.7556 55.3035 21.7283C55.3171 21.6736 55.3236 21.6189 55.3236 21.5643C55.3373 21.5096 55.3506 21.4549 55.3642 21.4003C55.3775 21.3593 55.3843 21.2978 55.3843 21.2158C55.3843 21.1884 55.3843 21.1611 55.3843 21.1338C55.398 21.1064 55.4044 21.0791 55.4044 21.0518V20.3342C55.4044 20.2522 55.398 20.1907 55.3843 20.1497V20.0677C55.3843 20.0404 55.3775 20.0267 55.3642 20.0267C55.3642 20.0131 55.3642 19.9925 55.3642 19.9652C55.3642 19.8969 55.3506 19.7944 55.3236 19.6577C55.3103 19.6304 55.3035 19.603 55.3035 19.5757C55.3035 19.5484 55.2967 19.5211 55.2834 19.4937C55.2834 19.48 55.2765 19.4732 55.2632 19.4732C55.2632 19.4595 55.2632 19.4459 55.2632 19.4322C55.2632 19.4185 55.2564 19.4117 55.2428 19.4117C55.2428 19.398 55.2428 19.3844 55.2428 19.3707C55.2295 19.3434 55.2226 19.3229 55.2226 19.3092C55.2226 19.2955 55.2158 19.275 55.2025 19.2477C55.1889 19.2204 55.1824 19.1998 55.1824 19.1862C55.1824 19.1725 55.1756 19.152 55.1619 19.1247C55.1486 19.111 55.1418 19.0973 55.1418 19.0837C55.1418 19.07 55.135 19.0564 55.1217 19.0427C55.0947 18.988 55.0811 18.9607 55.0811 18.9607C55.0678 18.947 55.061 18.9402 55.061 18.9402C55.061 18.9265 55.0541 18.9128 55.0408 18.8992C55.0272 18.8855 55.0207 18.8718 55.0207 18.8582C55.0071 18.8445 55.0002 18.8308 55.0002 18.8172H54.9801C54.9801 18.8172 54.9869 18.8308 55.0002 18.8582V18.8992C55.0139 18.9128 55.0207 18.9402 55.0207 18.9812C55.0207 18.9948 55.0207 19.0085 55.0207 19.0222C55.034 19.0222 55.0408 19.0358 55.0408 19.0632C55.0408 19.1042 55.0477 19.1383 55.061 19.1657V19.2682C55.061 19.2955 55.061 19.316 55.061 19.3297C55.0746 19.3434 55.0811 19.3638 55.0811 19.3912C55.0811 19.5142 55.0879 19.6099 55.1016 19.6782V20.0062C55.1148 20.0746 55.1217 20.1839 55.1217 20.3342V21.1133C55.108 21.1406 55.1016 21.1748 55.1016 21.2158V21.6873C55.0879 21.742 55.0811 21.7966 55.0811 21.8513C55.0811 21.8923 55.0811 21.9333 55.0811 21.9743C55.0811 22.0016 55.0746 22.0221 55.061 22.0358C55.061 22.0495 55.061 22.07 55.061 22.0973V22.2203C55.0477 22.2476 55.0408 22.2818 55.0408 22.3228C55.0408 22.3501 55.034 22.3775 55.0207 22.4048C55.0207 22.4321 55.0139 22.4526 55.0002 22.4663V22.5073L54.9801 22.5483C54.9801 22.5483 54.9938 22.5415 55.0207 22.5278V22.5073L55.0408 22.4868C55.0541 22.4732 55.061 22.4663 55.061 22.4663C55.061 22.4526 55.0678 22.439 55.0811 22.4253C55.0947 22.398 55.108 22.3707 55.1217 22.3433C55.135 22.3023 55.1486 22.2681 55.1619 22.2408Z" fill="#F4EDE8"/>
<path d="M63.0617 30.1131C63.0617 30.3591 63.0822 30.5436 63.1224 30.6666C63.1763 30.7759 63.2302 30.8648 63.2841 30.9331C63.338 30.9878 63.3851 31.0424 63.4257 31.0971C63.4796 31.1518 63.5065 31.2406 63.5065 31.3637H58.0088C57.9279 31.3637 57.8539 31.3295 57.7863 31.2611C57.7191 31.1928 57.6854 31.1176 57.6854 31.0356C57.6854 31.1176 57.6516 31.1928 57.5844 31.2611C57.5305 31.3295 57.4565 31.3637 57.362 31.3637H56.311C56.311 31.2406 56.3311 31.1518 56.3717 31.0971C56.4256 31.0424 56.4795 30.9878 56.5334 30.9331C56.5873 30.8648 56.6344 30.7759 56.675 30.6666C56.7289 30.5573 56.7558 30.3864 56.7558 30.1541V25.1519C56.7152 24.7282 56.5266 24.4207 56.1896 24.2294C56.338 24.1337 56.5266 24.0859 56.7558 24.0859V18.2227C56.7558 17.9903 56.7289 17.8195 56.675 17.7101C56.6344 17.6008 56.5873 17.5188 56.5334 17.4641C56.4795 17.3958 56.4256 17.3343 56.3717 17.2796C56.3311 17.225 56.311 17.1361 56.311 17.0131H57.3821C57.463 17.0131 57.5373 17.0473 57.6045 17.1156C57.6721 17.1703 57.7055 17.2454 57.7055 17.3411C57.7055 17.1224 57.8133 17.0131 58.0289 17.0131H63.5065C63.5065 17.1361 63.4796 17.225 63.4257 17.2796C63.3851 17.3343 63.338 17.3958 63.2841 17.4641C63.2302 17.5188 63.1763 17.6076 63.1224 17.7306C63.0822 17.84 63.0617 18.0176 63.0617 18.2637V20.9902C62.5903 20.9902 62.2263 20.9014 61.9705 20.7237C61.7279 20.5324 61.5458 20.3206 61.4247 20.0882C61.2763 19.8285 61.1955 19.5211 61.1822 19.1657V18.5302C61.1822 18.3798 61.1283 18.25 61.0205 18.1406C60.9127 18.0313 60.7848 17.9698 60.6364 17.9562H59.1812C59.0328 17.9698 58.9049 18.0313 58.7971 18.1406C58.6893 18.25 58.6354 18.3798 58.6354 18.5302V23.1428C58.6354 23.2932 58.6893 23.423 58.7971 23.5324C58.9049 23.6417 59.0328 23.6964 59.1812 23.6964H59.3227C59.4708 23.6964 59.5922 23.6417 59.6864 23.5324C59.7942 23.423 59.848 23.2932 59.848 23.1428V23.1223C59.8617 22.9173 59.9156 22.7397 60.0097 22.5893C60.0906 22.4526 60.212 22.3296 60.3737 22.2203C60.5354 22.111 60.7711 22.0563 61.0812 22.0563V26.2999C60.7711 26.2999 60.5354 26.2453 60.3737 26.1359C60.212 26.0266 60.0906 25.9036 60.0097 25.7669C59.9156 25.6166 59.8617 25.4389 59.848 25.2339C59.848 25.0836 59.7942 24.9537 59.6864 24.8444C59.5922 24.7351 59.4708 24.6735 59.3227 24.6599H59.1812C59.0328 24.6735 58.9049 24.7351 58.7971 24.8444C58.6893 24.9537 58.6354 25.0836 58.6354 25.2339V29.8466C58.6354 29.9969 58.6893 30.1268 58.7971 30.2361C58.9049 30.3454 59.0328 30.4001 59.1812 30.4001H60.6364C60.7848 30.4001 60.9127 30.3454 61.0205 30.2361C61.1283 30.1268 61.1822 29.9969 61.1822 29.8466V29.1905C61.1955 28.8489 61.2763 28.5482 61.4247 28.2885C61.5458 28.0562 61.7279 27.8444 61.9705 27.653C62.2263 27.4616 62.5903 27.366 63.0617 27.366V30.1131ZM57.8471 23.2248C57.8471 23.1565 57.8402 23.0813 57.8269 22.9993C57.8269 22.9173 57.8269 22.8353 57.8269 22.7533V22.3023C57.8133 22.0016 57.8068 21.7146 57.8068 21.4413C57.8068 21.1679 57.8 20.9083 57.7863 20.6622C57.773 20.5529 57.7662 20.4436 57.7662 20.3342C57.7662 20.2249 57.7594 20.1224 57.7461 20.0267C57.7461 19.9174 57.7393 19.8217 57.726 19.7397C57.726 19.6577 57.726 19.5825 57.726 19.5142C57.726 19.4459 57.7192 19.3844 57.7055 19.3297C57.7055 19.275 57.7055 19.2272 57.7055 19.1862V19.0837C57.6922 19.0837 57.6854 19.0905 57.6854 19.1042V19.1862C57.6854 19.2272 57.6785 19.275 57.6653 19.3297C57.6653 19.3844 57.6653 19.4459 57.6653 19.5142C57.6653 19.5825 57.6584 19.6577 57.6451 19.7397C57.6451 19.8217 57.6451 19.9174 57.6451 20.0267C57.6315 20.1224 57.6247 20.2249 57.6247 20.3342C57.6247 20.4436 57.6182 20.5529 57.6045 20.6622C57.5912 20.9083 57.5844 21.1679 57.5844 21.4413C57.5844 21.7146 57.5776 22.0016 57.5643 22.3023V22.7533C57.5643 22.8353 57.5575 22.9173 57.5438 22.9993C57.5438 23.0813 57.5438 23.1565 57.5438 23.2248V25.1314C57.5438 25.2407 57.5506 25.3228 57.5643 25.3774V26.054C57.5643 26.2043 57.5643 26.3546 57.5643 26.505C57.5776 26.6416 57.5844 26.7783 57.5844 26.915C57.5844 27.0653 57.5844 27.202 57.5844 27.325C57.5977 27.448 57.6045 27.571 57.6045 27.694C57.6182 27.817 57.6247 27.9332 57.6247 28.0425C57.6247 28.1382 57.6315 28.2407 57.6451 28.35C57.6451 28.4457 57.6451 28.5345 57.6451 28.6165C57.6584 28.6985 57.6653 28.7737 57.6653 28.8421C57.6653 28.9104 57.6653 28.9787 57.6653 29.0471C57.6785 29.1017 57.6854 29.1427 57.6854 29.1701V29.2726C57.6854 29.2862 57.6922 29.2931 57.7055 29.2931V29.1701C57.7055 29.1427 57.7055 29.1017 57.7055 29.0471C57.7192 28.9787 57.726 28.9104 57.726 28.8421C57.726 28.7737 57.726 28.6985 57.726 28.6165C57.7393 28.5345 57.7461 28.4457 57.7461 28.35C57.7594 28.2407 57.7662 28.1382 57.7662 28.0425C57.7662 27.9332 57.773 27.817 57.7863 27.694C57.7863 27.571 57.7863 27.448 57.7863 27.325C57.8 27.202 57.8068 27.0653 57.8068 26.915C57.8068 26.7783 57.8068 26.6416 57.8068 26.505C57.8201 26.3546 57.8269 26.2043 57.8269 26.054V25.6029C57.8269 25.4936 57.8338 25.4184 57.8471 25.3774V23.2248Z" fill="#F4EDE8"/>
<path d="M71.1928 32.2247C71.3409 32.252 71.4422 32.2998 71.4961 32.3682C71.5633 32.4365 71.6104 32.5048 71.6373 32.5732C71.6643 32.6552 71.6779 32.744 71.6779 32.8397C71.2467 32.8397 70.8425 32.785 70.4652 32.6757C70.088 32.5663 69.7509 32.3887 69.4545 32.1427C69.1717 31.8967 68.9425 31.5755 68.7672 31.1791C68.6055 30.7828 68.5246 30.2976 68.5246 29.7236V26.915C68.5246 26.7373 68.5182 26.5186 68.5045 26.259C68.4912 25.9993 68.4438 25.7533 68.3629 25.5209C68.2821 25.2886 68.1542 25.0904 67.9792 24.9264C67.8175 24.7487 67.575 24.6599 67.2516 24.6599H66.4227C66.3016 24.6872 66.1938 24.7556 66.0993 24.8649C66.0185 24.9606 65.9782 25.0767 65.9782 25.2134V30.1131C65.9782 30.3591 65.9983 30.5436 66.0386 30.6666C66.0925 30.7759 66.1464 30.8648 66.2003 30.9331C66.2542 30.9878 66.3016 31.0424 66.3418 31.0971C66.3957 31.1518 66.4227 31.2406 66.4227 31.3637H65.3516C65.2707 31.3637 65.1964 31.3295 65.1292 31.2611C65.0616 31.1928 65.0282 31.1176 65.0282 31.0356C65.0282 31.1176 64.9944 31.1928 64.9269 31.2611C64.873 31.3295 64.799 31.3637 64.7048 31.3637H63.6539C63.6539 31.2406 63.674 31.1518 63.7142 31.0971C63.7681 31.0424 63.822 30.9878 63.8759 30.9331C63.9298 30.8648 63.9772 30.7759 64.0175 30.6666C64.0714 30.5573 64.0983 30.3864 64.0983 30.1541V25.1519C64.0581 24.7282 63.8694 24.4207 63.5324 24.2294C63.6808 24.1337 63.8694 24.0859 64.0983 24.0859V18.2227C64.0983 17.9903 64.0714 17.8195 64.0175 17.7101C63.9772 17.6008 63.9298 17.5188 63.8759 17.4641C63.822 17.3958 63.7681 17.3343 63.7142 17.2796C63.674 17.225 63.6539 17.1361 63.6539 17.0131H64.725C64.8058 17.0131 64.8798 17.0473 64.9474 17.1156C65.0146 17.1703 65.0483 17.2454 65.0483 17.3411C65.0483 17.1224 65.1561 17.0131 65.3717 17.0131H67.2717C67.7029 17.0131 68.1071 17.0951 68.4844 17.2591C68.8617 17.4231 69.1919 17.6486 69.4746 17.9356C69.7578 18.209 69.9802 18.537 70.1419 18.9197C70.3036 19.3023 70.3909 19.7055 70.4045 20.1292V21.4618C70.4045 22.0358 70.2698 22.562 70.0003 23.0403C69.7308 23.5187 69.3668 23.9014 68.9087 24.1884C69.3668 24.4617 69.7308 24.8444 70.0003 25.3364C70.2698 25.8148 70.4045 26.3409 70.4045 26.915V29.6416C70.4045 29.9286 70.4045 30.2224 70.4045 30.5231C70.4178 30.8101 70.4516 31.0766 70.5055 31.3226C70.5594 31.555 70.6402 31.7532 70.748 31.9172C70.8558 32.0812 71.0042 32.1837 71.1928 32.2247ZM69.3536 21.1133C69.3399 21.1406 69.3334 21.1748 69.3334 21.2158V21.6873C69.3198 21.742 69.3129 21.7966 69.3129 21.8513C69.3129 21.8923 69.3129 21.9333 69.3129 21.9743C69.3129 22.0016 69.3065 22.0221 69.2928 22.0358C69.2928 22.0494 69.2928 22.07 69.2928 22.0973V22.2203C69.2795 22.2476 69.2727 22.2818 69.2727 22.3228C69.2727 22.3501 69.2659 22.3775 69.2526 22.4048C69.2526 22.4321 69.2458 22.4526 69.2321 22.4663V22.5073L69.212 22.5483C69.212 22.5483 69.2256 22.5415 69.2526 22.5278V22.5073L69.2727 22.4868C69.286 22.4732 69.2928 22.4663 69.2928 22.4663C69.2928 22.4526 69.2997 22.439 69.3129 22.4253C69.3266 22.398 69.3399 22.3707 69.3536 22.3433C69.3668 22.3023 69.3805 22.2681 69.3938 22.2408C69.4074 22.2135 69.4143 22.1998 69.4143 22.1998C69.4143 22.1861 69.4207 22.1656 69.4344 22.1383C69.4477 22.111 69.4545 22.0905 69.4545 22.0768C69.4545 22.0494 69.4613 22.0221 69.4746 21.9948C69.4883 21.9675 69.4951 21.947 69.4951 21.9333C69.4951 21.9196 69.5016 21.8991 69.5152 21.8718C69.5152 21.8445 69.5152 21.8239 69.5152 21.8103C69.5285 21.7829 69.5354 21.7556 69.5354 21.7283C69.549 21.6736 69.5555 21.6189 69.5555 21.5643C69.5691 21.5096 69.5824 21.4549 69.5961 21.4003C69.6094 21.3593 69.6162 21.2978 69.6162 21.2158C69.6162 21.1884 69.6162 21.1611 69.6162 21.1338C69.6299 21.1064 69.6363 21.0791 69.6363 21.0518V20.3342C69.6363 20.2522 69.6299 20.1907 69.6162 20.1497V20.0677C69.6162 20.0404 69.6094 20.0267 69.5961 20.0267C69.5961 20.0131 69.5961 19.9925 69.5961 19.9652C69.5961 19.8969 69.5824 19.7944 69.5555 19.6577C69.5422 19.6304 69.5354 19.603 69.5354 19.5757C69.5354 19.5484 69.5285 19.5211 69.5152 19.4937C69.5152 19.48 69.5084 19.4732 69.4951 19.4732C69.4951 19.4595 69.4951 19.4459 69.4951 19.4322C69.4951 19.4185 69.4883 19.4117 69.4746 19.4117C69.4746 19.398 69.4746 19.3844 69.4746 19.3707C69.4613 19.3434 69.4545 19.3229 69.4545 19.3092C69.4545 19.2955 69.4477 19.275 69.4344 19.2477C69.4207 19.2204 69.4143 19.1998 69.4143 19.1862C69.4143 19.1725 69.4074 19.152 69.3938 19.1247C69.3805 19.111 69.3737 19.0973 69.3737 19.0837C69.3737 19.07 69.3668 19.0564 69.3536 19.0427C69.3266 18.988 69.3129 18.9607 69.3129 18.9607C69.2997 18.947 69.2928 18.9402 69.2928 18.9402C69.2928 18.9265 69.286 18.9128 69.2727 18.8992C69.2591 18.8855 69.2526 18.8718 69.2526 18.8582C69.2389 18.8445 69.2321 18.8308 69.2321 18.8172H69.212C69.212 18.8172 69.2188 18.8308 69.2321 18.8582V18.8992C69.2458 18.9128 69.2526 18.9402 69.2526 18.9812C69.2526 18.9948 69.2526 19.0085 69.2526 19.0222C69.2659 19.0222 69.2727 19.0358 69.2727 19.0632C69.2727 19.1042 69.2795 19.1383 69.2928 19.1657V19.2682C69.2928 19.2955 69.2928 19.316 69.2928 19.3297C69.3065 19.3434 69.3129 19.3638 69.3129 19.3912C69.3129 19.5142 69.3198 19.6099 69.3334 19.6782V20.0062C69.3467 20.0746 69.3536 20.1839 69.3536 20.3342V21.1133ZM65.1899 23.2248C65.1899 23.1565 65.1831 23.0813 65.1694 22.9993C65.1694 22.9173 65.1694 22.8353 65.1694 22.7533V22.3023C65.1561 22.0016 65.1493 21.7146 65.1493 21.4413C65.1493 21.1679 65.1425 20.9083 65.1292 20.6622C65.1155 20.5529 65.1091 20.4436 65.1091 20.3342C65.1091 20.2249 65.1022 20.1224 65.0886 20.0267C65.0886 19.9174 65.0821 19.8217 65.0684 19.7397C65.0684 19.6577 65.0684 19.5825 65.0684 19.5142C65.0684 19.4459 65.0616 19.3844 65.0483 19.3297C65.0483 19.275 65.0483 19.2272 65.0483 19.1862V19.0837C65.0347 19.0837 65.0282 19.0905 65.0282 19.1042V19.1862C65.0282 19.2272 65.0214 19.275 65.0077 19.3297C65.0077 19.3844 65.0077 19.4459 65.0077 19.5142C65.0077 19.5825 65.0013 19.6577 64.9876 19.7397C64.9876 19.8217 64.9876 19.9174 64.9876 20.0267C64.9743 20.1224 64.9675 20.2249 64.9675 20.3342C64.9675 20.4436 64.9607 20.5529 64.9474 20.6622C64.9337 20.9083 64.9269 21.1679 64.9269 21.4413C64.9269 21.7146 64.9204 22.0016 64.9068 22.3023V22.7533C64.9068 22.8353 64.8999 22.9173 64.8866 22.9993C64.8866 23.0813 64.8866 23.1565 64.8866 23.2248V25.1314C64.8866 25.2407 64.8935 25.3228 64.9068 25.3774V26.054C64.9068 26.2043 64.9068 26.3546 64.9068 26.505C64.9204 26.6416 64.9269 26.7783 64.9269 26.915C64.9269 27.0653 64.9269 27.202 64.9269 27.325C64.9405 27.448 64.9474 27.571 64.9474 27.694C64.9607 27.817 64.9675 27.9332 64.9675 28.0425C64.9675 28.1382 64.9743 28.2407 64.9876 28.35C64.9876 28.4457 64.9876 28.5345 64.9876 28.6165C65.0013 28.6985 65.0077 28.7737 65.0077 28.8421C65.0077 28.9104 65.0077 28.9787 65.0077 29.0471C65.0214 29.1017 65.0282 29.1427 65.0282 29.1701V29.2726C65.0282 29.2862 65.0347 29.2931 65.0483 29.2931V29.1701C65.0483 29.1427 65.0483 29.1017 65.0483 29.0471C65.0616 28.9787 65.0684 28.9104 65.0684 28.8421C65.0684 28.7737 65.0684 28.6985 65.0684 28.6165C65.0821 28.5345 65.0886 28.4457 65.0886 28.35C65.1022 28.2407 65.1091 28.1382 65.1091 28.0425C65.1091 27.9332 65.1155 27.817 65.1292 27.694C65.1292 27.571 65.1292 27.448 65.1292 27.325C65.1425 27.202 65.1493 27.0653 65.1493 26.915C65.1493 26.7783 65.1493 26.6416 65.1493 26.505C65.1629 26.3546 65.1694 26.2043 65.1694 26.054V25.6029C65.1694 25.4936 65.1762 25.4184 65.1899 25.3774V23.2248ZM68.5246 20.2112C68.5246 20.0335 68.5182 19.8149 68.5045 19.5552C68.4912 19.2955 68.4438 19.0495 68.3629 18.8172C68.2821 18.5848 68.1542 18.3867 67.9792 18.2227C67.8175 18.045 67.575 17.9562 67.2516 17.9562H66.5236C66.3756 17.9698 66.2477 18.0313 66.1399 18.1406C66.0321 18.25 65.9782 18.3798 65.9782 18.5302V23.1428C65.9782 23.2932 66.0321 23.423 66.1399 23.5324C66.2477 23.6417 66.3756 23.6964 66.5236 23.6964H67.2516C67.575 23.6964 67.8175 23.6143 67.9792 23.4503C68.1542 23.2863 68.2821 23.0882 68.3629 22.8558C68.4438 22.6098 68.4912 22.3638 68.5045 22.1178C68.5182 21.8581 68.5246 21.6395 68.5246 21.4618V20.2112ZM69.8789 31.4456C69.8789 31.4456 69.8724 31.4388 69.8587 31.4251L69.8386 31.4046C69.825 31.3773 69.8117 31.35 69.798 31.3226C69.798 31.2953 69.7847 31.268 69.7578 31.2406C69.7441 31.1996 69.7308 31.1586 69.7172 31.1176C69.7039 31.063 69.6902 31.0015 69.6769 30.9331C69.65 30.7965 69.6363 30.6666 69.6363 30.5436C69.623 30.4753 69.6162 30.4069 69.6162 30.3386C69.6162 30.2566 69.6162 30.1678 69.6162 30.0721V28.9855C69.6162 28.8899 69.6162 28.7942 69.6162 28.6985C69.6162 28.6029 69.623 28.5004 69.6363 28.391C69.6363 28.2953 69.6363 28.1997 69.6363 28.104C69.6363 28.0084 69.6299 27.9127 69.6162 27.817V27.53C69.6162 27.3933 69.6094 27.2976 69.5961 27.243C69.5961 27.1473 69.5893 27.0585 69.576 26.9765C69.576 26.8808 69.5691 26.792 69.5555 26.71C69.5285 26.5186 69.5016 26.3546 69.4746 26.218C69.4613 26.1496 69.4477 26.0881 69.4344 26.0334C69.4207 25.9651 69.4006 25.8968 69.3737 25.8284C69.3467 25.7601 69.3266 25.7054 69.3129 25.6644C69.2997 25.6234 69.2795 25.5824 69.2526 25.5414C69.2256 25.5004 69.2052 25.4662 69.1919 25.4389C69.1782 25.4116 69.1649 25.3843 69.1513 25.3569C69.138 25.3569 69.1243 25.3501 69.111 25.3364C69.0974 25.3364 69.0909 25.3296 69.0909 25.3159L69.111 25.3364C69.111 25.3501 69.1178 25.3638 69.1311 25.3774C69.1311 25.3911 69.1311 25.4047 69.1311 25.4184C69.1448 25.4184 69.1513 25.4321 69.1513 25.4594C69.1649 25.4731 69.1717 25.4868 69.1717 25.5004C69.1717 25.5141 69.1782 25.5346 69.1919 25.5619C69.2052 25.6166 69.2256 25.7123 69.2526 25.8489C69.2659 25.9173 69.2727 25.9856 69.2727 26.054C69.286 26.1223 69.2997 26.1906 69.3129 26.259C69.3129 26.3273 69.3129 26.4024 69.3129 26.4845C69.3266 26.5528 69.3334 26.6348 69.3334 26.7304V29.2726C69.3334 29.3272 69.3334 29.3751 69.3334 29.4161C69.3467 29.4571 69.3536 29.5049 69.3536 29.5596C69.3536 29.6552 69.3536 29.7509 69.3536 29.8466C69.3668 29.9286 69.3805 30.0106 69.3938 30.0926C69.4074 30.1746 69.4143 30.2566 69.4143 30.3386C69.4276 30.4206 69.4412 30.4958 69.4545 30.5641C69.4815 30.6461 69.5016 30.7213 69.5152 30.7896C69.5285 30.8443 69.549 30.9058 69.576 30.9741C69.6029 31.0424 69.623 31.0971 69.6363 31.1381C69.65 31.1791 69.6701 31.2201 69.697 31.2611L69.7377 31.3021C69.7509 31.3158 69.7578 31.3295 69.7578 31.3431C69.7578 31.3431 69.7646 31.35 69.7779 31.3637L69.8587 31.4456H69.8789Z" fill="#F4EDE8"/>
<path d="M75.7948 23.4123C76.3928 23.4123 76.8775 23.904 76.8775 24.5105C76.8775 25.1171 76.3928 25.6088 75.7948 25.6088C75.1968 25.6088 74.712 25.1171 74.712 24.5105C74.712 23.904 75.1968 23.4123 75.7948 23.4123Z" fill="#999591"/>
<path d="M6.85763 23.4123C7.45563 23.4123 7.94041 23.904 7.94041 24.5105C7.94041 25.1171 7.45563 25.6088 6.85763 25.6088C6.25962 25.6088 5.77484 25.1171 5.77484 24.5105C5.77484 23.904 6.25962 23.4123 6.85763 23.4123Z" fill="#999591"/>
</svg>
